<svg viewBox="0 0 64 64" xml:space="preserve" xmlns="http://www.w3.org/2000/svg"><path d="M120 117.536a1 1 0 0 0-1 1v14H89v-42h3v2a1 1 0 0 0 1 1h2v2a1 1 0 0 0 1 1h2.575c1.184 1.244 3.206 2 5.425 2s4.241-.756 5.425-2H112a1 1 0 0 0 1-1v-2h2a1 1 0 0 0 1-1v-2h3v14a1 1 0 1 0 2 0v-15a1 1 0 0 0-1-1H88a1 1 0 0 0-1 1v44a1 1 0 0 0 1 1h32a1 1 0 0 0 1-1v-15a1 1 0 0 0-1-1zm-9-23h-2.037a1 1 0 0 0-.801.401c-.726.971-2.359 1.599-4.162 1.599s-3.437-.628-4.162-1.599a.996.996 0 0 0-.801-.401H97v-1h14v1zm3-3H94v-1h20v1zm1.2 8.199H92.8a1 1 0 0 0-1 1v28.801a1 1 0 0 0 1 1h22.4a1 1 0 0 0 1-1v-28.801a1 1 0 0 0-1-1zm-1 28.801H93.8v-26.801h20.4v26.801zm-18.2-22a1 1 0 1 1 2 0 1 1 0 1 1-2 0zm5 1h10a1 1 0 1 0 0-2h-10a1 1 0 1 0 0 2zm-4 4a1 1 0 1 0 0-2 1 1 0 1 0 0 2zm4 0h10a1 1 0 1 0 0-2h-10a1 1 0 1 0 0 2zm-4 4a1 1 0 1 0 0-2 1 1 0 1 0 0 2zm4 0h10a1 1 0 1 0 0-2h-10a1 1 0 1 0 0 2zm-4 4a1 1 0 1 0 0-2 1 1 0 1 0 0 2zm4 0h10a1 1 0 1 0 0-2h-10a1 1 0 1 0 0 2zm-4 4a1 1 0 1 0 0-2 1 1 0 1 0 0 2zm4 0h10a1 1 0 1 0 0-2h-10a1 1 0 1 0 0 2zm43 3.999a1 1 0 0 0-1 1v.501h-.803a7.707 7.707 0 0 0-1.55-3.732l.57-.571.355.355a.997.997 0 0 0 1.414 0 .999.999 0 0 0 0-1.414l-2.124-2.124a.999.999 0 1 0-1.414 1.414l.354.354-.57.571a7.72 7.72 0 0 0-3.733-1.551v-.803H136a1 1 0 1 0 0-2h-3.002a1 1 0 1 0 0 2h.501v.803a7.707 7.707 0 0 0-3.733 1.55l-.57-.569.355-.355a.999.999 0 1 0-1.414-1.414l-1.06 1.06-.003.002-.002.003-1.06 1.06a.999.999 0 1 0 1.414 1.414l.354-.354.57.569a7.73 7.73 0 0 0-1.551 3.733H126v-.501a1 1 0 1 0-2 0v3.002a1 1 0 1 0 2 0v-.501h.801a7.725 7.725 0 0 0 1.551 3.734l-.569.569-.354-.354a.999.999 0 1 0-1.414 1.414l2.124 2.124a.997.997 0 0 0 1.414 0 .999.999 0 0 0 0-1.414l-.355-.355.57-.569a7.725 7.725 0 0 0 3.733 1.551v.801H133a1 1 0 1 0 0 2h3.002a1 1 0 1 0 0-2h-.502v-.802a7.71 7.71 0 0 0 3.733-1.55l.57.569-.355.355a.999.999 0 1 0 1.414 1.414l2.124-2.124a.999.999 0 1 0-1.414-1.414l-.354.354-.57-.569a7.733 7.733 0 0 0 1.551-3.734H143v.502a1 1 0 1 0 2 0v-3.003a1 1 0 0 0-1-1.001zm-9.5 8.272a5.777 5.777 0 0 1-5.771-5.767l.001-.004-.001-.004a5.778 5.778 0 0 1 5.771-5.766c3.182 0 5.77 2.589 5.77 5.771s-2.588 5.77-5.77 5.77zm-10.758-18.835-.132-.132.173-.173a6.309 6.309 0 0 0 2.717 1.127v.242h-.185a1 1 0 1 0 0 2h2.369a1 1 0 1 0 0-2h-.184v-.242a6.304 6.304 0 0 0 2.717-1.127l.173.173-.132.132a.999.999 0 1 0 1.414 1.414l1.677-1.677a.999.999 0 1 0-1.414-1.414l-.131.131-.173-.172a6.3 6.3 0 0 0 1.127-2.718H134v.186a1 1 0 1 0 2 0v-2.37a1 1 0 1 0-2 0v.185h-.242a6.309 6.309 0 0 0-1.127-2.717l.173-.173.132.132a.997.997 0 0 0 1.414 0 .999.999 0 0 0 0-1.414l-1.677-1.677a.999.999 0 1 0-1.414 1.414l.131.131-.173.173a6.304 6.304 0 0 0-2.717-1.127v-.242h.185a1 1 0 1 0 0-2h-2.369a1 1 0 1 0 0 2h.185v.242a6.304 6.304 0 0 0-2.717 1.127l-.173-.172.132-.132a.999.999 0 1 0-1.414-1.414l-.836.836-.003.002-.002.003-.836.836a.999.999 0 1 0 1.414 1.414l.131-.131.173.172a6.309 6.309 0 0 0-1.127 2.717H121v-.185a1 1 0 1 0-2 0v2.369a1 1 0 1 0 2 0v-.185h.242a6.3 6.3 0 0 0 1.127 2.718l-.173.172-.131-.131a.999.999 0 1 0-1.414 1.414l1.677 1.677a.997.997 0 0 0 1.414 0 .999.999 0 0 0 0-1.414zm3.758-9.781a4.35 4.35 0 0 1 4.345 4.346c0 2.396-1.949 4.344-4.345 4.344s-4.345-1.948-4.345-4.344a4.35 4.35 0 0 1 4.345-4.346zm1.914-10.2c.519 0 .93-.398.98-.902.146.723.435 1.396.83 1.99a.99.99 0 0 0-1.34.049.999.999 0 0 0 0 1.414l1.452 1.452a.997.997 0 0 0 1.414 0 .991.991 0 0 0 .049-1.341 5.6 5.6 0 0 0 1.989.83.99.99 0 0 0-.902.98 1 1 0 0 0 1 1h2.055a1 1 0 0 0 1-1 .988.988 0 0 0-.902-.98 5.603 5.603 0 0 0 1.989-.83.991.991 0 0 0 .756 1.634.997.997 0 0 0 .707-.293l1.452-1.452a.999.999 0 0 0 0-1.414.99.99 0 0 0-1.34-.049 5.612 5.612 0 0 0 .83-1.99.99.99 0 0 0 .98.902 1 1 0 0 0 1-1v-2.055a1 1 0 0 0-1-1 .988.988 0 0 0-.98.903 5.604 5.604 0 0 0-.831-1.991.996.996 0 0 0 .635.245.999.999 0 0 0 .707-1.707l-1.452-1.452a.999.999 0 0 0-1.414 0 .991.991 0 0 0-.049 1.341 5.611 5.611 0 0 0-1.991-.831.99.99 0 0 0 .903-.98 1 1 0 0 0-1-1h-2.055a1 1 0 0 0-1 1c0 .519.398.93.903.98a5.595 5.595 0 0 0-1.989.83.991.991 0 0 0-.05-1.34.999.999 0 0 0-1.414 0l-.724.724-.003.002-.002.003-.724.724a.999.999 0 0 0 .707 1.707c.228 0 .448-.09.633-.244a5.605 5.605 0 0 0-.83 1.99.99.99 0 0 0-.98-.903 1 1 0 0 0-1 1v2.055a1 1 0 0 0 1.001.999zm6.5-5.66a3.638 3.638 0 0 1 3.633 3.634c0 2.003-1.63 3.632-3.633 3.632s-3.633-1.629-3.633-3.632a3.638 3.638 0 0 1 3.633-3.634zM60 110.275a1 1 0 0 0-1 1v6.557a3.953 3.953 0 0 0-2-.557H22v-22h4v3.5h-.5a1 1 0 0 0-1 1v6a1 1 0 0 0 1 1h3a1 1 0 0 0 1-1v-6a1 1 0 0 0-1-1H28v-4.5a1 1 0 0 0-1-1h-5v-1a1 1 0 1 0-2 0v1h-5a1 1 0 0 0-1 1v4.5h-.5a1 1 0 0 0-1 1v6a1 1 0 0 0 1 1h3a1 1 0 0 0 1-1v-6a1 1 0 0 0-1-1H16v-3.5h4v22h-1.5v-1.5c0-1.379-1.121-2.5-2.5-2.5H7.5a2.502 2.502 0 0 0-2.5 2.5v-10.5a1 1 0 1 0-2 0v30a1 1 0 1 0 2 0v-8h15v7.449h-3.25a1 1 0 1 0 0 2h8.5a1 1 0 1 0 0-2H22v-7.449h37v8a1 1 0 1 0 2 0v-24a1 1 0 0 0-1-1zm-32.5-5.5h-1v-4h1v4zm-12 0h-1v-4h1v4zm-8 10.5H16c.275 0 .5.225.5.5v1.5H7v-1.5c0-.275.225-.5.5-.5zm-2.5 10v-6h52c1.103 0 2 .897 2 2v4H5zM-32.021 94.657c-.016-.012-.035-.014-.051-.023-.032-.021-.059-.047-.093-.064-.055-.027-.112-.041-.169-.058-.023-.007-.044-.019-.067-.023a1.012 1.012 0 0 0-.338-.014c-.026.003-.052.012-.078.018a.961.961 0 0 0-.252.09c-.029.015-.058.027-.085.046-.018.011-.038.017-.055.029-5.071 3.746-11.745 5.81-18.791 5.81s-13.719-2.063-18.791-5.809c-.016-.012-.034-.017-.051-.026-.033-.022-.067-.038-.104-.056a.998.998 0 0 0-.224-.08c-.038-.008-.073-.018-.111-.021a.968.968 0 0 0-.299.013c-.015.003-.03.001-.045.005a.962.962 0 0 0-.274.113c-.016.009-.026.023-.041.033-.012.009-.027.01-.039.019C-77.796 98.954-81 104.756-81 110.996s3.204 12.042 9.021 16.339l.006.003c5.412 3.995 12.505 6.196 19.973 6.196s14.561-2.201 19.973-6.196l.006-.003c5.817-4.297 9.021-10.099 9.021-16.339s-3.204-12.042-9.021-16.339zM-79 110.996c0-5.092 2.427-9.884 6.86-13.652.395 3.063 1.149 9.588 1.149 14.703 0 4.855-.701 10.057-1.104 12.641-4.462-3.775-6.905-8.583-6.905-13.692zm27 20.538c-6.817 0-13.286-1.931-18.291-5.449.334-1.966 1.301-8.164 1.301-14.038 0-4.992-.694-11.234-1.107-14.505 5.126 3.188 11.464 4.925 18.098 4.925s12.972-1.736 18.099-4.925c-.412 3.272-1.108 9.53-1.108 14.505 0 5.874.967 12.072 1.301 14.038-5.007 3.519-11.476 5.449-18.293 5.449zm20.094-6.846c-.402-2.584-1.104-7.785-1.104-12.641 0-5.132.754-11.64 1.149-14.703 4.434 3.769 6.86 8.561 6.86 13.652.001 5.109-2.442 9.917-6.905 13.692zm-7.156-19.036a.998.998 0 0 1-.595 1.282c-3.918 1.437-8.071 2.164-12.344 2.164s-8.426-.728-12.344-2.164a.998.998 0 0 1-.595-1.282.997.997 0 0 1 1.282-.595c3.697 1.354 7.619 2.041 11.656 2.041s7.959-.687 11.656-2.041a.999.999 0 0 1 1.284.595zm-1.282 4.406c-3.697 1.354-7.619 2.041-11.656 2.041s-7.959-.687-11.656-2.041a.997.997 0 0 0-1.282.595.998.998 0 0 0 .595 1.282c3.918 1.437 8.071 2.164 12.344 2.164s8.426-.728 12.344-2.164a1 1 0 1 0-.689-1.877zm0 5c-3.697 1.354-7.619 2.041-11.656 2.041s-7.959-.687-11.656-2.041a.996.996 0 0 0-1.282.595.998.998 0 0 0 .595 1.282c3.918 1.437 8.071 2.164 12.344 2.164s8.426-.728 12.344-2.164a.998.998 0 0 0 .595-1.282.999.999 0 0 0-1.284-.595zm0 5c-3.697 1.354-7.619 2.041-11.656 2.041s-7.959-.687-11.656-2.041a.996.996 0 0 0-1.282.595.998.998 0 0 0 .595 1.282c3.918 1.437 8.071 2.164 12.344 2.164s8.426-.728 12.344-2.164a.998.998 0 0 0 .595-1.282.999.999 0 0 0-1.284-.595zM-156.5 99.375c2.619 0 4.75-2.131 4.75-4.75s-2.131-4.75-4.75-4.75-4.75 2.131-4.75 4.75 2.131 4.75 4.75 4.75zm0-7.5c1.517 0 2.75 1.233 2.75 2.75s-1.233 2.75-2.75 2.75-2.75-1.233-2.75-2.75 1.233-2.75 2.75-2.75zm5.625 9.25h-11.25A2.879 2.879 0 0 0-165 104v11.25a2.879 2.879 0 0 0 2.875 2.875c.307 0 .598-.062.875-.15v17.275a2.879 2.879 0 0 0 2.875 2.875c.72 0 1.37-.275 1.875-.714a2.852 2.852 0 0 0 1.875.714 2.879 2.879 0 0 0 2.875-2.875v-17.275c.277.089.568.15.875.15A2.879 2.879 0 0 0-148 115.25V104a2.879 2.879 0 0 0-2.875-2.875zm.875 14.125c0 .482-.393.875-.875.875s-.875-.393-.875-.875v-6.875a1 1 0 1 0-2 0v26.875c0 .482-.393.875-.875.875s-.875-.393-.875-.875v-14.375a1 1 0 1 0-2 0v14.375c0 .482-.393.875-.875.875s-.875-.393-.875-.875v-26.875a1 1 0 1 0-2 0v6.875c0 .482-.393.875-.875.875s-.875-.393-.875-.875V104c0-.482.393-.875.875-.875h11.25c.482 0 .875.393.875.875v11.25zm34.5-15.875c2.619 0 4.75-2.131 4.75-4.75s-2.131-4.75-4.75-4.75-4.75 2.131-4.75 4.75 2.131 4.75 4.75 4.75zm0-7.5c1.517 0 2.75 1.233 2.75 2.75s-1.233 2.75-2.75 2.75-2.75-1.233-2.75-2.75 1.233-2.75 2.75-2.75zm5.625 9.25h-11.25A2.879 2.879 0 0 0-124 104v11.25a2.879 2.879 0 0 0 2.875 2.875c.307 0 .598-.062.875-.15v17.275a2.879 2.879 0 0 0 2.875 2.875c.72 0 1.37-.275 1.875-.714a2.852 2.852 0 0 0 1.875.714 2.879 2.879 0 0 0 2.875-2.875v-17.275c.277.089.568.15.875.15A2.879 2.879 0 0 0-107 115.25V104a2.879 2.879 0 0 0-2.875-2.875zm.875 14.125c0 .482-.393.875-.875.875s-.875-.393-.875-.875v-6.875a1 1 0 1 0-2 0v26.875c0 .482-.393.875-.875.875s-.875-.393-.875-.875v-14.375a1 1 0 1 0-2 0v14.375c0 .482-.393.875-.875.875s-.875-.393-.875-.875v-26.875a1 1 0 1 0-2 0v6.875c0 .482-.393.875-.875.875s-.875-.393-.875-.875V104c0-.482.393-.875.875-.875h11.25c.482 0 .875.393.875.875v11.25zm-19.182-1.799a.991.991 0 0 1-.042 1.18l-1.625 2a.997.997 0 0 1-1.406.145 1 1 0 0 1-.146-1.407l.3-.369h-9.798l.3.369a1 1 0 1 1-1.552 1.262l-1.625-2a.988.988 0 0 1-.041-1.182c.013-.026.019-.053.041-.08l1.625-2a1.001 1.001 0 0 1 1.552 1.261l-.3.369h9.798l-.3-.369a1 1 0 1 1 1.552-1.261l1.625 2c.023.029.029.055.042.082zM-219.17 106.168l-.775-.471 9.525-15.684.232.142a.999.999 0 1 0 1.038-1.708l-1.084-.658-.003-.003-3.261-1.98-.004-.001-1.083-.658a1 1 0 0 0-1.039 1.709l.232.141-9.525 15.683-.776-.472a1.003 1.003 0 0 0-1.11.048c-.026.019-.041.049-.065.07a.98.98 0 0 0-.199.217l-5.942 9.783v.002l-3.959 6.519-.001.001v.001l-4.622 7.609a1 1 0 0 0 .335 1.374l.232.141-1.461 2.407a1.001 1.001 0 0 0 .336 1.373l1.319.801-5.423 8.929a1 1 0 0 0 1.708 1.04l5.424-8.93 1.319.801a.999.999 0 0 0 1.373-.334l1.462-2.407.232.142a.999.999 0 0 0 1.373-.334l12.543-20.65.001-.002 1.659-2.731.321-.529v-.001a1 1 0 0 0-.044-1.104.885.885 0 0 0-.288-.276zm7.04-17.192-9.525 15.684-1.552-.943 9.526-15.683 1.551.942zm-12.972 15.928.002.002 3.262 1.981.002.001.773.47-.942 1.552-4.813-2.924.942-1.552.774.47zm-15.154 25.657.942-1.552 2.638 1.603-.942 1.551-2.638-1.602zm5.707-.999-4.233-2.57-.348-.211-.231-.141 3.583-5.9 1.319.802a.996.996 0 0 0 1.374-.334 1 1 0 0 0-.335-1.374l-1.319-.802.942-1.552 1.319.802a.999.999 0 1 0 1.038-1.708l-1.319-.802.943-1.552 1.32.801a1 1 0 0 0 1.038-1.708l-1.32-.802.942-1.551 1.319.802a.999.999 0 1 0 1.038-1.708l-1.319-.802.943-1.553 4.813 2.924-11.507 18.939zm39.947-22.954h-2.044V100a1 1 0 0 0-1-1h-12.174a1 1 0 0 0-1 1v6.608h-2.043a1 1 0 0 0-1 1V135a1 1 0 0 0 1 1h18.261a1 1 0 0 0 1-1v-27.392a1 1 0 0 0-1-1zM-208.819 101h10.174v5.608h-10.174V101zm-3.043 13.695h10.174v13.218h-10.174v-13.218zm16.26 19.305h-16.261v-4.087h11.174a1 1 0 0 0 1-1v-15.218a1 1 0 0 0-1-1h-11.174v-4.087h16.261V134zM110.415 31.992h4a1 1 0 0 0 1-1v-4a1 1 0 0 0-1-1h-4a1 1 0 0 0-1 1v4a1 1 0 0 0 1 1zm1-4h2v2h-2v-2zm6.057 4h4a1 1 0 0 0 1-1v-4a1 1 0 0 0-1-1h-4a1 1 0 0 0-1 1v4a1 1 0 0 0 1 1zm1-4h2v2h-2v-2zm-8.057 11h4a1 1 0 0 0 1-1v-4a1 1 0 0 0-1-1h-4a1 1 0 0 0-1 1v4a1 1 0 0 0 1 1zm1-4h2v2h-2v-2zm6.057 4h4a1 1 0 0 0 1-1v-4a1 1 0 0 0-1-1h-4a1 1 0 0 0-1 1v4a1 1 0 0 0 1 1zm1-4h2v2h-2v-2zm-17.972 5h3a1 1 0 0 0 1-1v-3a1 1 0 0 0-1-1h-3a1 1 0 0 0-1 1v3a1 1 0 0 0 1 1zm1-3h1v1h-1v-1zm-1 10h3a1 1 0 0 0 1-1v-3a1 1 0 0 0-1-1h-3a1 1 0 0 0-1 1v3a1 1 0 0 0 1 1zm1-3h1v1h-1v-1zm26.943-4h3a1 1 0 0 0 1-1v-3a1 1 0 0 0-1-1h-3a1 1 0 0 0-1 1v3a1 1 0 0 0 1 1zm1-3h1v1h-1v-1zm-1 10h3a1 1 0 0 0 1-1v-3a1 1 0 0 0-1-1h-3a1 1 0 0 0-1 1v3a1 1 0 0 0 1 1zm1-3h1v1h-1v-1zm-10.824-28.265a1 1 0 0 1-1 1h-.732v.732a1 1 0 1 1-2 0v-.732h-.732a1 1 0 1 1 0-2h.732v-.734a1 1 0 1 1 2 0v.734h.732a1 1 0 0 1 1 1zm-2.676 40.265a1 1 0 0 0 1-1v-4a1 1 0 1 0-2 0v4a1 1 0 0 0 1 1zm25.079-5.164c-.298 0-.591.033-.875.1a3.346 3.346 0 0 0-4.204-2.286v-16.65a1 1 0 0 0-1-1h-9v-6h.943a1 1 0 0 0 1-1v-4a1 1 0 0 0-1-1h-4v-8a1 1 0 0 0-1-1h-5v-6a1 1 0 1 0-2 0v6h-5a1 1 0 0 0-1 1v8h-4a1 1 0 0 0-1 1v4a1 1 0 0 0 1 1h1.057v6h-9a1 1 0 0 0-1 1v14.879a3.199 3.199 0 0 0-1.974.723 4.503 4.503 0 0 0-2.464-.727 4.568 4.568 0 0 0-4.563 4.563v8.563a1 1 0 0 0 1 1h41.854c.05.002.096.016.146.016h14.001a1 1 0 0 0 1-1V54.75a3.926 3.926 0 0 0-3.921-3.922zm-39.541 8.164H88.943V51.43a2.566 2.566 0 0 1 2.563-2.563c.702 0 1.36.285 1.853.803a.995.995 0 0 0 .844.305c.313-.039.591-.221.748-.494.22-.385.608-.613 1.039-.613.318 0 .604.129.82.332.034.031.06.07.09.105a1.194 1.194 0 0 1 .215.355c.049.131.084.27.084.416 0 .086-.015.182-.046.303a.993.993 0 0 0 .187.879 1.005 1.005 0 0 0 .9.367c.844.02 1.555.631 1.699 1.469a.998.998 0 0 0 1.144.818c.131-.021.263-.045.399-.045a2.566 2.566 0 0 1 2.563 2.563 2.566 2.566 0 0 1-2.564 2.562zm4.462 0h-.688l.006-.01c.007-.01.011-.021.018-.031.141-.209.259-.434.362-.666.032-.072.059-.145.087-.219.071-.186.131-.375.178-.572.011-.041.029-.078.038-.121v1.619zm0-3.5a4.567 4.567 0 0 0-4.3-3.621 3.76 3.76 0 0 0-2.461-2.117 3.116 3.116 0 0 0-.126-.613c-.022-.076-.06-.146-.088-.223-.047-.117-.092-.236-.15-.346-.04-.076-.09-.145-.136-.215a3.267 3.267 0 0 0-.214-.305c-.048-.059-.101-.111-.152-.166a3.07 3.07 0 0 0-.312-.291c-.022-.018-.039-.041-.062-.059V32.992h8v22.5zm4.944-43.5h10v7h-10v-7zm8.056 47h-6v-12h6v12zm1-14h-8v-1h8v1zm4 14h-3v-12a1 1 0 0 0 1-1v-3a1 1 0 0 0-1-1h-10a1 1 0 0 0-1 1v3a1 1 0 0 0 1 1v12h-3v-34h16v34zm1.944-36h-20v-2h20v2zm.207 34.799c.01.053.019.104.03.154.05.223.114.438.199.643.013.029.029.059.043.088.048.107.096.215.152.316h-.575v-26h8v17.373l-.021.047c-.02.043-.046.082-.064.127-.031-.021-.065-.035-.098-.055a3.097 3.097 0 0 0-.313-.176c-.034-.016-.071-.027-.105-.041a2.965 2.965 0 0 0-.339-.131c-.059-.018-.12-.027-.181-.041-.096-.023-.19-.051-.29-.066a3.34 3.34 0 0 0-3.829 3.299v.041a3.893 3.893 0 0 0-2.681 3.717c0 .242.03.475.072.705zm16.849 1.217h-13.001c-.023 0-.046-.006-.069-.008-.009 0-.017-.006-.026-.006a1.92 1.92 0 0 1-1.295-.59l-.007-.01a1.883 1.883 0 0 1-.211-.266c-.016-.023-.026-.051-.041-.076-.046-.078-.091-.154-.125-.238-.022-.055-.035-.113-.053-.17-.019-.061-.042-.117-.055-.18a1.905 1.905 0 0 1 1.832-2.291 1 1 0 0 0 .907-1.361 1.349 1.349 0 0 1-.096-.484c0-.736.6-1.336 1.337-1.336.723 0 1.32.59 1.332 1.313a1.009 1.009 0 0 0 .458.824c.28.182.634.209.939.078.13-.057.267-.096.406-.129l.003-.002.021-.006c.03-.008.052-.031.081-.041.077-.031.154-.061.221-.111a.98.98 0 0 0 .4-.447 1.003 1.003 0 0 0-.063-.871c-.015-.029-.022-.061-.039-.09a1.32 1.32 0 0 1-.201-.682c0-.154.04-.299.089-.438.021-.057.045-.111.074-.168.223-.428.658-.73 1.174-.73.736 0 1.336.6 1.336 1.336 0 .115-.022.24-.071.396a1.001 1.001 0 0 0 1.598 1.063 1.899 1.899 0 0 1 1.225-.459c1.06 0 1.921.861 1.921 1.922v4.258zM52.299 38.279l-4.772-1.028c3.132-1.177 4.042-3.447 4.099-3.596a.999.999 0 0 0-.84-1.347 6.804 6.804 0 0 1-3.606-1.455c2.879-.304 4.633-2.688 5.242-4.236a.996.996 0 0 0-.221-1.07.998.998 0 0 0-1.069-.229c-1.422.547-2.557.598-3.363.148-1.021-.567-1.28-1.815-1.289-1.855a1.017 1.017 0 0 0-.117-.296c.024-1.015-.221-1.83-.757-2.417a2.617 2.617 0 0 0-1.007-.682c.096-.429.204-.971.305-1.585.052-.076.106-.151.135-.241l2.64-8.242a.987.987 0 0 0 .048-.305C47.725 5.398 39.623 3 32 3S16.275 5.398 16.275 9.843c0 .104.016.206.048.305l2.618 8.175c.125.853.265 1.581.378 2.105a3.078 3.078 0 0 0-1.224 1.114c-.354.573-.484 1.26-.439 2.027-.003.015-.013.025-.016.04-.003.013-.256 1.283-1.288 1.856-.81.449-1.94.398-3.363-.148a.999.999 0 0 0-1.29 1.299c.608 1.548 2.362 3.933 5.242 4.236a6.814 6.814 0 0 1-3.607 1.455.999.999 0 0 0-.84 1.347c.056.148.959 2.397 4.057 3.579l-4.85 1.045c-.46.1-.789.507-.789.978V60a1 1 0 0 0 1 1h40.176a1 1 0 0 0 1-1V39.257c0-.471-.329-.878-.789-.978zm-5.53-11.08c.734.414 1.575.613 2.504.565-.884.839-2.258 1.502-4.247.859a1 1 0 0 0-1.181 1.437c.074.135 1.673 2.948 5.164 3.939-1.081 1.112-3.547 2.575-8.759 1.658-.036-.007-.07.005-.105.002l-2.206-.475c2.639-1.878 3.909-4.897 4.354-7.315.491.157 1.063.22 1.656.029.719-.23 1.288-.775 1.706-1.618.294.34.658.661 1.114.919zm-26.98-4.593c.265-.442.835-.537.833-.537a.997.997 0 0 0 .843-1.249 26.16 26.16 0 0 1-.423-2.032c1.67-.474 5.818-1.478 10.958-1.478 5.058 0 9.12.959 10.851 1.444-.215 1.187-.443 1.98-.445 1.99a1.01 1.01 0 0 0 1.058 1.275c.004 0 .438-.032.671.233.27.306.313 1.008.122 1.927-.314 1.508-.781 1.77-.917 1.814-.361.114-.97-.271-1.185-.465a1 1 0 0 0-1.677.69 9.672 9.672 0 0 1-.032.38c-2.235-1.892-5.263-2.995-8.458-2.995-3.199 0-6.229 1.104-8.46 2.996a4.236 4.236 0 0 1-.021-.202 1.002 1.002 0 0 0-1.59-.725c-.006.004-.569.381-1.042.234-.378-.116-.733-.599-1-1.358-.302-.859-.332-1.53-.086-1.942zm12.199 2.998c3.095 0 6.092 1.258 7.976 3.295-.796 2.572-2.817 6.06-7.972 6.06h-.014c-5.064-.007-7.112-3.564-7.934-6.094 1.894-2.044 4.814-3.261 7.944-3.261zm-.011 11.355h.016a12 12 0 0 0 1.87-.155A2.229 2.229 0 0 1 32 37.81a2.222 2.222 0 0 1-1.864-1.011c.581.095 1.186.159 1.841.16zM32 5c7.701 0 13.493 2.457 13.718 4.708l-2.283 7.13c-1.832-.522-6.065-1.527-11.435-1.527-5.338 0-9.595 1.01-11.434 1.529l-2.284-7.132C18.507 7.457 24.299 5 32 5zM15.109 34.002c3.492-.992 5.092-3.806 5.166-3.94a1 1 0 0 0-1.181-1.437c-1.985.643-3.363-.02-4.247-.859.92.048 1.771-.151 2.504-.565a4.26 4.26 0 0 0 1.128-.931c.467.796 1.067 1.323 1.806 1.551.508.156.995.147 1.418.065.476 2.369 1.785 5.398 4.418 7.288l-2.27.489c-5.199.913-7.663-.553-8.742-1.661zM51.088 59H12.912V40.064l7.021-1.513v2.961c-3.17.478-5.589 3.187-5.672 6.588v7.882a1 1 0 0 0 1 1h1.206v.005a1 1 0 1 0 2 0v-2.009a1 1 0 1 0-2 0v.004h-.206v-6.857c.064-2.633 2.117-4.695 4.672-4.695 2.556 0 4.607 2.063 4.671 4.671v6.882h-.206v-.004a1 1 0 1 0-2 0v2.009a1 1 0 1 0 2 0v-.005h1.206a1 1 0 0 0 1-1v-7.906c-.082-3.378-2.501-6.086-5.671-6.563v-3.392l6.044-1.302c.524 1.724 2.119 2.99 4.022 2.99s3.498-1.267 4.022-2.99l8.353 1.799v12.66a3.068 3.068 0 0 0-2.073 2.892 3.076 3.076 0 0 0 3.073 3.072 3.075 3.075 0 0 0 3.071-3.072c0-1.342-.87-2.474-2.071-2.891V39.05l4.713 1.015V59zm-5.713-5.902a1.072 1.072 0 1 1-.003 2.145 1.072 1.072 0 0 1 .003-2.145zM28.911 10.191a1 1 0 0 1 1-1H31v-1.09a1 1 0 1 1 2 0v1.09h1.088a1 1 0 1 1 0 2H33v1.088a1 1 0 1 1-2 0v-1.088h-1.089a1 1 0 0 1-1-1zM-31.789 38.389l-14.288-3.078c2.621-1.869 3.885-4.869 4.328-7.275.487.156 1.057.217 1.646.027 1.117-.357 1.877-1.467 2.259-3.299.34-1.629.135-2.867-.608-3.68a2.574 2.574 0 0 0-.998-.67c.604-2.662 1.695-9.506-1.968-13.064-2.549-2.475-4.753-4.369-7.942-4.369-2.135 0-4.521.869-7.487 2.732a12.357 12.357 0 0 0-.755-.021c-2.033 0-5.617.439-6.773 3.371-1.655 3.908-.723 9.414-.256 11.563a3.03 3.03 0 0 0-1.215 1.102c-.59.951-.627 2.182-.108 3.658.494 1.408 1.265 2.283 2.29 2.6.506.154.99.145 1.409.064.475 2.357 1.776 5.367 4.392 7.25l-14.347 3.09c-.46.1-.789.508-.789.979V60.02a1 1 0 0 0 1 1h40a1 1 0 0 0 1-1V39.367a1.003 1.003 0 0 0-.79-.978zm-6.895 14.761c.586 0 1.063.479 1.063 1.064s-.477 1.063-1.063 1.063a1.064 1.064 0 0 1 0-2.127zM-62.525 9.818c.759-1.92 3.695-2.127 4.923-2.127.526 0 .878.035.902.037.221.025.455-.029.647-.152 2.725-1.746 4.914-2.596 6.692-2.596 2.443 0 4.256 1.576 6.55 3.805 3.117 3.027 1.774 9.699 1.305 11.619-.614.303-1.04.934-1.307 1.652-.628-.623-1.007-1.549-1.124-1.969a1.024 1.024 0 0 0-1.026-.734c-2.188.137-4.181-2.197-4.198-2.219a1 1 0 0 0-.721-.355.97.97 0 0 0-.749.291c-2.905 2.887-8.362 2.922-8.613 2.922H-59.253c-.408 0-.776.248-.929.627-.298.74-.638 1.264-.944 1.584a5.32 5.32 0 0 0-1.453-1.574c-.35-1.502-1.496-7.149.054-10.811zm-.55 16.254c-.375-.115-.728-.596-.993-1.35-.3-.855-.33-1.523-.086-1.932.14-.232.358-.363.539-.439.299.234.78.715 1.135 1.59a1 1 0 0 0 1.073.613c1.093-.162 2.077-1.07 2.812-2.58 1.617-.08 5.711-.514 8.622-2.82.877.807 2.477 2.006 4.365 2.182.419 1.002 1.389 2.736 3.209 3.217a1.01 1.01 0 0 0 .822-.143c.24-.166.396-.428.428-.719.067-.619.333-1.371.478-1.477.018 0 .034-.008.052-.01.012 0 .022.006.034.004.003-.002.432-.031.664.232.268.303.312 1 .121 1.914-.313 1.498-.775 1.758-.91 1.803-.359.119-.962-.27-1.175-.461a.992.992 0 0 0-1.058-.189.999.999 0 0 0-.619.879c-.002.037-.012.178-.031.369-2.227-1.881-5.237-2.979-8.418-2.979-3.184 0-6.197 1.1-8.42 2.98a6.284 6.284 0 0 1-.021-.193 1.001 1.001 0 0 0-1.59-.725c-.006.006-.562.381-1.033.234zm3.159 2.949c1.885-2.033 4.789-3.244 7.904-3.244 3.078 0 6.061 1.252 7.936 3.279-.792 2.559-2.805 6.025-7.932 6.025h-.014c-5.038-.005-7.076-3.542-7.894-6.06zm9.763 7.907a2.211 2.211 0 0 1-3.697-.004c.577.094 1.178.158 1.826.158h.016c.66 0 1.27-.062 1.855-.154zM-33 59.02h-38V40.174l6.981-1.504v2.938c-3.156.479-5.564 3.178-5.646 6.564v7.848a1 1 0 0 0 1 1h1.196a1 1 0 1 0 2 0v-2a1 1 0 1 0-2 0h-.196v-6.824c.063-2.619 2.104-4.67 4.646-4.67s4.583 2.051 4.646 4.646v6.848h-.196a1 1 0 1 0-2 0v2a1 1 0 1 0 2 0h1.196a1 1 0 0 0 1-1v-7.873c-.082-3.363-2.49-6.061-5.646-6.539v-3.369l6.011-1.295c.523 1.717 2.112 2.979 4.008 2.979s3.484-1.262 4.008-2.977l8.309 1.789v12.598a3.06 3.06 0 0 0-2.063 2.883 3.066 3.066 0 0 0 3.063 3.063 3.066 3.066 0 0 0 3.063-3.063 3.06 3.06 0 0 0-2.063-2.883V39.166L-33 40.174V59.02zM-151.4 35.616h6.37a1 1 0 0 0 1-1V21.724a1 1 0 0 0-1-1h-6.37a1 1 0 0 0-1 1v12.893a1 1 0 0 0 1 .999zm1-12.892h4.37v10.893h-4.37V22.724zm-11.074 12.892h7.202a1 1 0 0 0 1-1V21.724a1 1 0 0 0-1-1h-.334c-4.338 0-7.867 3.529-7.867 7.868v6.024a.998.998 0 0 0 .999 1zm1-7.024a5.876 5.876 0 0 1 5.202-5.831v10.855h-5.202v-5.024zM-108 18.198h-36.007v-2.699a1 1 0 0 0-1-1h-6.043a1 1 0 0 0-.967.745l-.778 2.954h-1.811c-5.731 0-10.394 4.662-10.394 10.394v12.71a3.644 3.644 0 0 0 3.64 3.641h3.791c.473 2.589 2.74 4.559 5.463 4.559s4.991-1.97 5.463-4.559h17.336c.473 2.589 2.74 4.559 5.463 4.559s4.991-1.97 5.464-4.559h7.739a3.644 3.644 0 0 0 3.64-3.641V19.198a.999.999 0 0 0-.999-1zm-42.28-1.699h4.272v1.699h-4.72l.448-1.699zm-4.326 3.699H-109v18.185h-54v-9.791c0-4.628 3.765-8.394 8.394-8.394zm25.3 22.744h-17.336a5.544 5.544 0 0 0-1.199-2.56h19.734a5.544 5.544 0 0 0-1.199 2.56zM-163 41.302v-.919h6.629a5.544 5.544 0 0 0-1.199 2.56h-3.79a1.644 1.644 0 0 1-1.64-1.641zm10.894 6.199a3.564 3.564 0 0 1-3.559-3.559c0-1.963 1.596-3.56 3.559-3.56s3.559 1.597 3.559 3.56a3.564 3.564 0 0 1-3.559 3.559zm28.263 0a3.563 3.563 0 0 1-3.558-3.559 3.563 3.563 0 0 1 3.558-3.56 3.564 3.564 0 0 1 3.559 3.56 3.563 3.563 0 0 1-3.559 3.559zm13.203-4.559h-7.739a5.544 5.544 0 0 0-1.199-2.56H-109v.919c0 .905-.736 1.641-1.64 1.641zm-21.839-12.226h3.771v3.771a1 1 0 0 0 1 1h2.457a1 1 0 0 0 1-1v-3.771h3.771a1 1 0 0 0 1-1v-2.457a1 1 0 0 0-1-1h-3.771v-3.771a1 1 0 0 0-1-1h-2.457a1 1 0 0 0-1 1v3.771h-3.771a1 1 0 0 0-1 1v2.457a1 1 0 0 0 1 1zm1-2.457h3.771a1 1 0 0 0 1-1v-3.771h.457v3.771a1 1 0 0 0 1 1h3.771v.457h-3.771a1 1 0 0 0-1 1v3.771h-.457v-3.771a1 1 0 0 0-1-1h-3.771v-.457zM-207.505 58.862l-.267-.001c-2.971-.02-5.795-.371-7.194-.897-1.732-.649-1.991-1.839-1.656-2.735.21-.56.61-3.446.97-7.885.294-3.618.433-6.734.356-7.964-.7-1.178-1.543-3.748-2.106-6.458-.405-1.947-.847-4.793-.652-7.29.211-2.698.095-4.986-.337-6.616l-.552-2.477-.574-2.598c-.168-.753-.033-1.527.382-2.18s1.058-1.103 1.813-1.27a2.92 2.92 0 0 1 2.177.381c.398.254.721.592.951.988l-.058-1.597a3.087 3.087 0 0 1 .829-2.23 3.095 3.095 0 0 1 2.278-.992c.566 0 1.113.153 1.59.438.139-.55.427-1.053.845-1.46a3.09 3.09 0 0 1 2.17-.883 3.12 3.12 0 0 1 2.226.939c.58.596.893 1.381.881 2.211l-.009.748a3.093 3.093 0 0 1 1.042-1.211 3.085 3.085 0 0 1 2.328-.493 3.085 3.085 0 0 1 1.994 1.301c.469.682.644 1.508.493 2.323-.056.293-.149.75-.271 1.34-1.365 6.604-1.902 10.21-2.036 12.131l.492-.526c.85-.908 1.69-1.806 2.467-2.648a3.411 3.411 0 0 1 2.512-1.094c.869 0 1.697.326 2.332.918a3.404 3.404 0 0 1 1.088 2.383 3.402 3.402 0 0 1-.915 2.455l-.184.196c-2.052 2.205-4.174 4.486-4.535 7.308-.339 2.672-3.104 5.616-4.348 6.82-.025 5.93.388 12.51 1.38 14.182.742 1.255.374 2.526-.962 3.321-1.645.977-5.054 1.122-6.94 1.122zm-7.218-3.004c.067.052.204.137.461.233 1.16.437 3.834.752 6.504.77l.253.001c2.776 0 5.044-.322 5.919-.841.449-.267.405-.34.263-.581-1.629-2.743-1.681-12.666-1.658-15.642.002-.275.118-.537.319-.725 1.722-1.6 3.813-4.107 4.042-5.909.442-3.46 2.893-6.094 5.055-8.417l.184-.197c.257-.276.392-.64.378-1.021a1.419 1.419 0 0 0-1.422-1.371c-.433.015-.785.176-1.044.454-.777.841-1.62 1.742-2.472 2.652l-.497.531c-.421.447-.84.896-1.536 1.643a1 1 0 0 1-1.627-.236c-.703-1.413-.203-5.706 1.782-15.31.119-.577.21-1.022.264-1.305a1.098 1.098 0 0 0-.177-.824 1.1 1.1 0 0 0-.711-.465 1.097 1.097 0 0 0-.831.176 1.104 1.104 0 0 0-.468.737c-.327 1.787-.712 3.828-1.097 5.874l-.021.113c-.174.913-.346 1.83-.695 3.697-.06.318-.289.632-.583.768a1.05 1.05 0 0 1-1.153-.201.998.998 0 0 1-.289-.715l.143-11.487a1.104 1.104 0 0 0-1.094-1.123 1.109 1.109 0 0 0-1.121 1.092l-.123 8.915a1 1 0 0 1-.987.986c-.559.044-.991-.42-1.012-.961l-.271-7.062a1.105 1.105 0 0 0-1.104-1.068 1.13 1.13 0 0 0-.813.354 1.094 1.094 0 0 0-.294.795l.391 10.725v.064a1.18 1.18 0 0 1-.478.968 1.257 1.257 0 0 1-.285.151.994.994 0 0 1-.875-.104c-.357-.229-.474-.599-.531-.856l-1.795-8.022a.887.887 0 0 0-1.059-.673.884.884 0 0 0-.679 1.063l1.087 4.914c.639 2.413.578 5.33.419 7.367-.138 1.765.081 4.154.616 6.728.584 2.811 1.462 5.28 1.941 5.957.098.139.159.3.178.469.154 1.415-.071 5.352-.333 8.564-.131 1.625-.591 6.95-1.064 8.355zm-17.772 3.004c-1.886 0-5.294-.146-6.939-1.12-1.337-.796-1.706-2.067-.964-3.321.993-1.673 1.406-8.253 1.381-14.183-1.245-1.204-4.009-4.148-4.349-6.821-.36-2.82-2.482-5.102-4.535-7.307l-.181-.194a3.41 3.41 0 0 1-.917-2.455 3.405 3.405 0 0 1 1.088-2.385 3.408 3.408 0 0 1 2.457-.915 3.407 3.407 0 0 1 2.382 1.086c.781.847 1.621 1.744 2.47 2.651l.495.528c-.134-1.919-.67-5.524-2.036-12.13-.122-.591-.215-1.048-.27-1.336a3.089 3.089 0 0 1 .493-2.33 3.09 3.09 0 0 1 1.993-1.299 3.095 3.095 0 0 1 2.327.492c.455.313.811.729 1.043 1.212l-.009-.75a3.08 3.08 0 0 1 .881-2.208 3.087 3.087 0 0 1 2.188-.94h.001a3.11 3.11 0 0 1 3.052 2.343 3.095 3.095 0 0 1 1.708-.435 3.096 3.096 0 0 1 2.163.99c.564.606.858 1.398.828 2.23l-.058 1.596c.229-.396.552-.734.949-.987a2.905 2.905 0 0 1 2.184-.381 2.86 2.86 0 0 1 1.807 1.269c.415.652.55 1.427.382 2.181l-1.087 4.914a4.564 4.564 0 0 1-.031.125c-.441 1.664-.558 3.952-.346 6.65.195 2.497-.247 5.343-.652 7.29-.563 2.71-1.407 5.28-2.106 6.458-.076 1.229.062 4.346.356 7.964.36 4.438.76 7.325.969 7.883.336.898.077 2.088-1.656 2.738-1.397.525-4.222.877-7.194.896l-.267.001zm-13.035-36.703c-.411 0-.754.136-1.017.38a1.42 1.42 0 0 0-.453.992c-.013.38.122.743.38 1.021l.18.192c2.165 2.326 4.615 4.96 5.057 8.419.229 1.803 2.321 4.311 4.043 5.91a.998.998 0 0 1 .319.725c.023 2.976-.029 12.898-1.658 15.643-.142.24-.186.313.265.581.874.518 3.142.84 5.918.84l.252-.001c2.671-.018 5.346-.333 6.504-.769.258-.098.395-.183.461-.234-.476-1.433-.934-6.734-1.064-8.353-.262-3.213-.487-7.149-.333-8.564.019-.169.08-.33.178-.469.479-.677 1.356-3.146 1.941-5.957.535-2.573.754-4.963.616-6.728-.159-2.037-.22-4.954.398-7.285l1.107-4.995a.888.888 0 0 0-.673-1.063.865.865 0 0 0-.675.117.885.885 0 0 0-.39.556l-1.794 8.024c-.041.172-.142.602-.532.854a.996.996 0 0 1-.875.104 1.284 1.284 0 0 1-.232-.115c-.357-.258-.536-.622-.531-1.015v-.054l.391-10.724a1.098 1.098 0 0 0-.293-.795 1.1 1.1 0 0 0-.773-.354h-.003c-.319 0-.585.105-.789.295a1.092 1.092 0 0 0-.353.77l-.271 7.063c-.021.541-.492.976-1.012.961a1 1 0 0 1-.987-.986l-.123-8.913a1.098 1.098 0 0 0-.335-.78 1.108 1.108 0 0 0-1.88.807l.143 11.481c.003.268-.101.529-.289.72a1.06 1.06 0 0 1-1.067.239c-.322-.114-.583-.428-.66-.76l-.726-3.854c-.386-2.046-.77-4.087-1.097-5.876l-.005-.023a1.106 1.106 0 0 0-1.294-.888 1.108 1.108 0 0 0-.887 1.294c.053.277.145.723.263 1.301 1.985 9.603 2.485 13.896 1.782 15.309a.999.999 0 0 1-.752.544.978.978 0 0 1-.875-.308 516.637 516.637 0 0 0-1.534-1.641l-.497-.531a630.133 630.133 0 0 1-2.477-2.657 1.412 1.412 0 0 0-.989-.45h-.003zM122.821-54.324c1.472 2.171 2.993 4.417 2.993 7.155 0 2.417-2.114 2.921-4.56 3.014.404 2.775.941 8.741-1.598 10.31-1.072.664-2.526.582-3.932.502-.769-.044-2.055-.117-2.312.133-.016.015-.039.094-.035.241l-.353 7.03a1 1 0 0 1-.998.949l-.052-.001a1 1 0 0 1-.948-1.05l.352-6.953c-.023-.815.336-1.356.642-1.653.887-.859 2.308-.778 3.818-.692 1.044.059 2.228.127 2.766-.207 1.362-.842 1.099-6.112.492-9.409a.998.998 0 0 1 .984-1.18c3.733 0 3.733-.621 3.733-1.032 0-2.125-1.287-4.023-2.649-6.033-1.398-2.063-2.844-4.197-3.009-6.775-.521-8.124-6.445-10.188-11.695-10.394.168.525.349 1.059.532 1.598 1.246 3.66 2.66 7.81-.604 10.545a1.004 1.004 0 0 1-1.41-.124 1.001 1.001 0 0 1 .124-1.409c2.065-1.729 1.376-4.315-.004-8.367a63.62 63.62 0 0 1-.725-2.223 21.45 21.45 0 0 0-2.981.406c.128.387.261.777.395 1.171 1.247 3.661 2.66 7.811-.604 10.546a1.004 1.004 0 0 1-1.41-.124 1.001 1.001 0 0 1 .124-1.409c2.065-1.73 1.377-4.315-.004-8.367-.146-.431-.295-.868-.439-1.311-.891.281-1.81.646-2.72 1.115 1.202 3.547 2.376 7.472-.756 10.096a1.004 1.004 0 0 1-1.41-.124 1.001 1.001 0 0 1 .124-1.409c1.914-1.603 1.461-3.941.286-7.5-3.289 2.317-6.037 6.338-6.037 13.316 0 9.447 2.741 12.807 4.944 15.505 1.371 1.681 2.556 3.131 2.556 5.497l-.17 6.978a1.001 1.001 0 0 1-1 .976h-.024a1.002 1.002 0 0 1-.976-1.024l.17-6.953c0-1.629-.837-2.655-2.104-4.208-2.277-2.789-5.396-6.609-5.396-16.77 0-7.605 3.126-12.468 7.378-15.28-1.058-3.2-1.918-6.661.229-9.4a.998.998 0 0 1 1.403-.171.998.998 0 0 1 .171 1.403c-1.467 1.872-.919 4.404-.033 7.146a19.094 19.094 0 0 1 2.793-1.135c-.647-2.543-.8-5.112.87-7.244a.998.998 0 0 1 1.403-.171.998.998 0 0 1 .171 1.403c-1.168 1.491-1.058 3.4-.518 5.501a22.303 22.303 0 0 1 3.063-.438c-.44-2.226-.377-4.428 1.085-6.295a.998.998 0 0 1 1.403-.171.998.998 0 0 1 .171 1.403c-1.076 1.375-1.068 3.105-.637 5.014 8.569.125 13.762 4.578 14.256 12.274.133 2.033 1.367 3.852 2.672 5.779zm15.003 13.213v-26.766a1 1 0 1 0-2 0v26.766a3.19 3.19 0 0 0-2.197 3.022 3.196 3.196 0 0 0 6.394 0c0-1.413-.923-2.6-2.197-3.022zm3.196-3.896v-22.87a4.202 4.202 0 0 0-4.196-4.196 4.203 4.203 0 0 0-4.198 4.196v22.871c-2.434 1.472-3.921 4.068-3.921 6.917 0 4.478 3.643 8.12 8.119 8.12 4.478 0 8.12-3.643 8.12-8.12a8.058 8.058 0 0 0-3.924-6.918zm-4.197 13.038a6.126 6.126 0 0 1-6.119-6.12c0-2.299 1.293-4.382 3.373-5.438a1 1 0 0 0 .548-.892v-23.459a2.2 2.2 0 0 1 2.198-2.196c1.211 0 2.196.985 2.196 2.196v23.459a1 1 0 0 0 .549.893c2.082 1.052 3.375 3.135 3.375 5.437a6.126 6.126 0 0 1-6.12 6.12zM13.816-60.102c-2.55 0-3.128 6.653-3.128 6.721a3.13 3.13 0 0 0 3.128 3.126 3.129 3.129 0 0 0 3.125-3.126c0-.067-.578-6.721-3.125-6.721zm0 7.847a1.128 1.128 0 0 1-1.128-1.126c0-.971.594-3.478 1.127-4.45.533.973 1.126 3.479 1.126 4.45 0 .621-.504 1.126-1.125 1.126zm5.587-13.98c-2.127 0-2.467 4.892-2.467 4.941a2.468 2.468 0 0 0 2.467 2.465 2.467 2.467 0 0 0 2.465-2.465c0-.05-.339-4.941-2.465-4.941zm0 5.406a.466.466 0 0 1-.467-.465c0-.442.217-1.481.466-2.241.25.76.466 1.8.466 2.241a.466.466 0 0 1-.465.465zm-3.783-4.615c0-.05-.339-4.942-2.466-4.942s-2.466 4.893-2.466 4.942c0 1.359 1.106 2.465 2.466 2.465s2.466-1.106 2.466-2.465zm-2.932 0c0-.442.217-1.481.466-2.242.25.761.466 1.8.466 2.242a.466.466 0 0 1-.932 0zm26.717 7.731c1.493 2.203 3.037 4.481 3.037 7.258 0 2.448-2.149 2.954-4.633 3.046.411 2.809.964 8.879-1.611 10.472-1.087.673-2.562.588-3.984.508-.784-.044-2.095-.117-2.359.138-.022.021-.044.111-.04.257l-.358 7.139a1 1 0 0 1-.998.949l-.052-.001a1 1 0 0 1-.948-1.05l.357-7.062c-.024-.823.338-1.368.646-1.668.896-.868 2.339-.783 3.865-.699 1.063.061 2.268.13 2.818-.212 1.256-.776 1.24-5.572.507-9.571a.998.998 0 0 1 .984-1.18c3.807 0 3.807-.615 3.807-1.064 0-2.162-1.308-4.093-2.693-6.136-1.418-2.094-2.886-4.258-3.053-6.872-.562-8.753-7.289-10.59-12.835-10.59C19.046-74.053 5-73.247 5-57.335c0 9.6 2.786 13.013 5.024 15.755 1.391 1.703 2.592 3.175 2.592 5.571l-.173 7.086a1.001 1.001 0 0 1-1 .976h-.024a1.002 1.002 0 0 1-.976-1.024l.173-7.062c0-1.659-.852-2.703-2.141-4.282C6.165-43.146 3-47.023 3-57.335 3-71.15 13.16-76.053 21.861-76.053c8.918 0 14.323 4.542 14.831 12.462.133 2.07 1.386 3.92 2.713 5.878zm14.366 13.404v-27.176a1 1 0 1 0-2 0v27.177a3.239 3.239 0 0 0-2.247 3.074 3.246 3.246 0 0 0 6.494 0 3.24 3.24 0 0 0-2.247-3.075zm3.245-3.941v-23.234a4.25 4.25 0 0 0-4.246-4.244 4.25 4.25 0 0 0-4.248 4.244v23.235c-2.471 1.49-3.981 4.125-3.981 7.016 0 4.538 3.691 8.23 8.229 8.23S61-36.695 61-41.233a8.162 8.162 0 0 0-3.984-7.017zM52.77-35.003a6.237 6.237 0 0 1-6.229-6.23c0-2.341 1.315-4.461 3.434-5.535a1 1 0 0 0 .548-.892v-23.824a2.248 2.248 0 0 1 4.494 0v23.824c0 .377.213.723.549.893 2.119 1.07 3.436 3.19 3.436 5.534a6.24 6.24 0 0 1-6.232 6.23zM-34.268-47.295c.486 3.203 1.239 10.605-1.798 12.484-1.244.769-2.963.672-4.63.575-1.087-.062-2.575-.146-2.949.218-.076.074-.111.225-.105.447l-.427 8.479a1 1 0 0 1-.998.949l-.052-.001a1 1 0 0 1-.948-1.05l.426-8.401c-.021-.729.218-1.379.712-1.858 1.007-.975 2.686-.881 4.456-.778 1.293.072 2.757.156 3.463-.28 1.747-1.08 1.455-7.424.689-11.584a.998.998 0 0 1 .984-1.18c4.721 0 4.721-.808 4.721-1.456 0-2.631-1.572-4.95-3.237-7.406-1.674-2.471-3.405-5.024-3.601-8.083C-38.238-76.783-46.344-79-53.023-79c-3.382 0-20.252.968-20.252 20.081 0 11.488 3.48 15.752 6.021 18.865 1.632 1.999 3.041 3.726 3.041 6.51l-.205 8.426a1.001 1.001 0 0 1-1 .976h-.024a1.003 1.003 0 0 1-.976-1.024l.205-8.401c0-2.047-1.087-3.378-2.59-5.221-2.731-3.346-6.473-7.929-6.473-20.13C-75.275-75.217-63.288-81-53.023-81c10.498 0 16.86 5.34 17.457 14.651.16 2.515 1.666 4.735 3.26 7.088 1.762 2.598 3.582 5.283 3.582 8.528-.001 2.595-2.091 3.321-5.544 3.438zM-53.477-25c-.279 0-.557-.026-.826-.079a1 1 0 0 0-.383 1.963c.395.077.802.116 1.209.116h.018c.553 0 .991-.447.991-1s-.456-1-1.009-1zm-4.31-4.313c0-.275.025-.549.077-.814a1.001 1.001 0 0 0-1.965-.377c-.074.389-.112.79-.112 1.191v.032c0 .553.447.983 1 .983s1-.462 1-1.015zm1.241-3.026c.197-.201.415-.383.647-.54a1.001 1.001 0 0 0-1.125-1.655c-.34.231-.659.498-.948.792a.999.999 0 0 0 .713 1.701.992.992 0 0 0 .713-.298zm-.504 5.439a1.003 1.003 0 0 0-1.39-.267 1.003 1.003 0 0 0-.267 1.39c.23.339.495.658.788.948a.997.997 0 0 0 1.414-.006.999.999 0 0 0-.006-1.414 4.406 4.406 0 0 1-.539-.651zm8.886-3.444c-.553 0-1 .479-1 1.031 0 .284-.027.567-.081.84a1 1 0 0 0 1.96.389c.08-.4.12-.813.12-1.229v-.063c.001-.552-.446-.968-.999-.968zm-.926-.968a1 1 0 0 0 .824-1.565c-.232-.341-.5-.66-.795-.947a1 1 0 0 0-1.396 1.432 4.3 4.3 0 0 1 .541.645.998.998 0 0 0 .826.435zm-3.583-2.238a.995.995 0 0 0 1.168-.796 1 1 0 0 0-.797-1.168 6.373 6.373 0 0 0-1.175-.109h-.046c-.553 0-.978.447-.978 1s.471 1 1.023 1a4.29 4.29 0 0 1 .805.073zm2.252 7.281c-.2.2-.42.382-.654.539a1 1 0 1 0 1.119 1.658c.34-.229.659-.493.949-.783a.999.999 0 1 0-1.414-1.414zm-3.056-5.574a2.532 2.532 0 0 0-2.529 2.53 2.532 2.532 0 0 0 2.529 2.53 2.532 2.532 0 0 0 2.531-2.53 2.532 2.532 0 0 0-2.531-2.53zM-129.409-47.325c.067.481.144 1.087.208 1.764.115 1.191-1.166 1.534-3.491 2.157-.458.123-1.086.291-1.604.453.467.325 1.042.695 1.46.964 1.486.957 2.011 1.31 2.242 1.749.735 1.401-.505 2.287-.969 2.602.1 1.14.1 3.326-1.214 4.139-1.34.829-2.911.271-4.056-.138-.253-.09-.595-.212-.844-.275v.045l-.277 5.527a1 1 0 0 1-.998.949l-.052-.001a1 1 0 0 1-.948-1.05l.276-5.45c-.023-.775.218-1.392.718-1.754.806-.583 1.817-.225 2.795.125.847.302 1.806.646 2.333.32.169-.155.438-1.131.232-2.638-.105-.767.512-1.184.88-1.434.05-.034.114-.077.176-.121-.344-.249-.922-.621-1.377-.914-2.244-1.443-3.021-1.985-3.039-2.822-.027-1.197 1.394-1.577 3.748-2.208.617-.165 1.476-.396 1.961-.576-.142-1.282-.309-2.199-.311-2.21a.996.996 0 0 1 .215-.82.996.996 0 0 1 .768-.36c3.284 0 3.284-.618 3.284-1.114-.045-.209-.565-1.026-.983-1.684-1.509-2.375-4.035-6.35-4.264-11.662-.407-9.438-8.426-10.848-13.169-10.848-2.888 0-17.292.826-17.292 17.146 0 9.841 2.856 13.341 5.151 16.152 1.421 1.741 2.648 3.245 2.648 5.691l-.177 7.256c-.014.552-.483.948-1.024.976a1 1 0 0 1-.975-1.024l.176-7.231c0-1.709-.922-2.839-2.198-4.402-2.364-2.896-5.602-6.864-5.602-17.417 0-14.132 10.393-19.146 19.292-19.146 9.29 0 14.818 4.651 15.167 12.762.206 4.777 2.552 8.469 3.954 10.675.808 1.271 1.295 2.038 1.295 2.757.003 2.509-2.317 2.995-4.115 3.09zm5.348 2.861a1.09 1.09 0 1 0-.001-2.18 1.09 1.09 0 0 0 .001 2.18zm4.641-1.089a1.089 1.089 0 1 0 0-2.178 1.089 1.089 0 0 0 0 2.178zm4.336-3.167a1.089 1.089 0 1 0 0 2.178 1.089 1.089 0 0 0 0-2.178zm4.906 1.446a1.09 1.09 0 1 0-.001-2.18 1.09 1.09 0 0 0 .001 2.18zm-15.531 4.419a1.089 1.089 0 1 0 0 2.178 1.089 1.089 0 0 0 0-2.178zm6.035 1.088a1.088 1.088 0 1 0-2.177-.001 1.088 1.088 0 0 0 2.177.001zm3.247-1.088a1.089 1.089 0 1 0 0-2.178 1.089 1.089 0 0 0 0 2.178zm4.275-.489a1.089 1.089 0 1 0 0-2.178 1.089 1.089 0 0 0 0 2.178zm3.063.489a1.088 1.088 0 1 0-.001 2.177 1.088 1.088 0 0 0 .001-2.177zm-14.239 3.951a1.088 1.088 0 1 0-.001 2.177 1.088 1.088 0 0 0 .001-2.177zm4.214.746a1.088 1.088 0 1 0 0 2.179 1.09 1.09 0 0 0 0-2.179zm3.776-1.919a1.088 1.088 0 1 0-2.178 0 1.09 1.09 0 1 0 2.178 0zm4.275.488a1.088 1.088 0 1 0-2.178 0 1.09 1.09 0 1 0 2.178 0zm-4.021 2.078a1.088 1.088 0 1 0-.001 2.177 1.088 1.088 0 0 0 .001-2.177zm4.021 1.09a1.088 1.088 0 1 0-.001 2.177 1.088 1.088 0 0 0 .001-2.177zM-215.509-63.517c-.504-7.875-5.878-12.391-14.744-12.391-8.648 0-18.747 4.873-18.747 18.605 0 10.249 3.145 14.103 5.441 16.916 1.28 1.568 2.125 2.604 2.126 4.252l-.171 7.017a1 1 0 0 0 .975 1.024c.529-.003 1.011-.424 1.024-.976l.171-7.041c0-2.384-1.194-3.847-2.576-5.54-2.224-2.725-4.991-6.116-4.991-15.652 0-15.805 13.951-16.605 16.747-16.605 5.509 0 12.192 1.825 12.748 10.519.076 1.18.425 2.265.908 3.296-4.088.996-12.225 2.866-14.498 2.866h-6.34c-3.464 0-6.283 2.818-6.283 6.283s2.818 6.283 6.283 6.283h6.873c1.96 2.719 4.708 4.511 9.535 6.092-1.063-.014-2.015.11-2.671.746-.307.299-.669.842-.644 1.662l-.355 7.017a1 1 0 0 0 .948 1.05l.052.001a1 1 0 0 0 .998-.949l.356-7.094c-.004-.152.021-.233.039-.251.261-.253 1.561-.182 2.339-.135 1.415.079 2.88.163 3.962-.506 2.56-1.583 2.014-7.61 1.605-10.404 2.468-.092 4.603-.598 4.603-3.033 0-2.76-1.535-5.024-3.019-7.215-1.317-1.945-2.562-3.782-2.694-5.837zm-.062 14.104a1 1 0 0 0-.983 1.18c.616 3.355.719 7.267-.014 8.866-8.113-2.083-10.804-4.1-12.637-6.849a1.001 1.001 0 0 0-.832-.445h-7.396c-2.361 0-4.283-1.922-4.283-4.283s1.921-4.283 4.283-4.283h6.34c2.891 0 12.914-2.418 15.494-3.052.363.583.748 1.155 1.131 1.721 1.375 2.029 2.675 3.946 2.675 6.093-.002.444-.002 1.052-3.778 1.052zM-192-70.43h-14.075a1 1 0 0 0-1 1v4.639a1 1 0 0 0 .917.997l7.163.592 1.598 10.169a1 1 0 0 0 .988.845H-192a1 1 0 0 0 1-1V-69.43a1 1 0 0 0-1-1zm-13.075 4.718v-2.718h5.259l.502 3.193-5.761-.475zM-193-54.188h-2.554l-2.238-14.241H-193v14.241zm-37.094 1.127a1 1 0 0 0-1-.996h-6.34c-1.717 0-3.113 1.396-3.113 3.113s1.396 3.113 3.113 3.113h6.374a1 1 0 0 0 .979-1.203l-.013-4.027zm-7.34 3.231a1.114 1.114 0 0 1 0-2.226h5.343l.008 2.227h-5.351zM139.821-138.488c-4.304-8.564-9.99-13.281-16.011-13.281-.55 0-1.352.222-2.048 1.278-1.524 2.314-2.121 8.214-1.901 14.562-.455-.409-.938-.842-1.361-1.224v-25.722a1 1 0 0 0-1-1h-2.994a1 1 0 0 0-1 1v25.722l-1.484 1.334c.23-6.39-.364-12.344-1.897-14.672-.696-1.057-1.498-1.278-2.048-1.278-6.021 0-11.707 4.717-16.011 13.281-4.698 9.351-7.075 22.93-3.126 28.241 1.032 1.388 2.678 2.122 4.76 2.122 5.55 0 12.983-5.092 15.296-10.477 1.175-2.733 2.03-6.688 2.536-10.912l4.478-3.268 4.326 3.105c.504 4.286 1.367 8.306 2.557 11.074 2.313 5.385 9.746 10.477 15.296 10.478 2.082 0 3.728-.734 4.76-2.122 3.947-5.311 1.571-18.89-3.128-28.241zm-32.664 19.096c-2.009 4.676-8.675 9.267-13.458 9.267-1.444 0-2.506-.442-3.154-1.315-3.126-4.202-1.58-16.421 3.308-26.149 2.286-4.549 7.173-12.179 14.224-12.179.042 0 .189.093.378.378 2.478 3.763 2.128 22.026-1.298 29.998zm9.43-15.437a1.001 1.001 0 0 0-1.173.005l-3.609 2.635c.022-.272.042-.544.062-.816.504-.429 1.437-1.271 3.31-2.959a1 1 0 0 0 .33-.743v-25.167h.994v25.167c0 .283.12.553.33.743 1.783 1.608 2.686 2.422 3.182 2.844.019.264.038.528.06.792l-3.486-2.501zm24.755 23.389c-.648.873-1.71 1.315-3.154 1.315-4.783 0-11.45-4.59-13.458-9.267-3.426-7.971-3.775-26.234-1.297-29.998.188-.286.336-.378.378-.378 7.051 0 11.938 7.63 14.224 12.179 4.887 9.727 6.433 21.946 3.307 26.149zm-9.682-11.195a2.758 2.758 0 0 1-2.755-2.755c0-1.52 1.235-2.755 2.755-2.755s2.755 1.236 2.755 2.755a2.758 2.758 0 0 1-2.755 2.755zm0-3.511a.756.756 0 0 0-.755.755c0 .416.339.755.755.755s.755-.339.755-.755a.756.756 0 0 0-.755-.755zm3.014 8.37c-1.326 0-2.405-1.079-2.405-2.404s1.079-2.404 2.405-2.404c1.324 0 2.402 1.078 2.402 2.404s-1.078 2.404-2.402 2.404zm0-2.808a.404.404 0 1 0-.001.809.404.404 0 0 0 .001-.809zm2.402-3.367a1 1 0 1 1 0-2 1 1 0 0 1 0 2zm-7.302 2.54a1 1 0 1 0-2 0 1 1 0 0 0 2 0zm-29.549-5.47a1 1 0 1 0-2 0 1 1 0 0 0 2 0zm-.374 8.455a1 1 0 1 0-2 0 1 1 0 0 0 2 0zm-4.521-2.305c-.649 0-1.28-.231-1.777-.65a2.76 2.76 0 0 1-.326-3.883c.945-1.118 2.766-1.271 3.883-.325.563.474.906 1.14.968 1.874a2.757 2.757 0 0 1-2.748 2.984zm.002-3.51a.754.754 0 0 0-.488 1.332.754.754 0 1 0 .974-1.153.74.74 0 0 0-.486-.179zm5.922 4.22a2.41 2.41 0 0 1-1.551-.568 2.39 2.39 0 0 1-.844-1.636 2.388 2.388 0 0 1 .561-1.752c.823-.974 2.408-1.108 3.387-.284a2.407 2.407 0 0 1 .285 3.387 2.402 2.402 0 0 1-1.838.853zm.001-2.808a.401.401 0 0 0-.403.438c.005.062.03.18.142.274.189.161.363.196.57-.048a.405.405 0 0 0-.309-.664zM61-156.875a5.155 5.155 0 0 0-5.149-5.148 5.153 5.153 0 0 0-5.146 5.148 5.154 5.154 0 0 0 4.147 5.047v25.595c0 9.285-6.181 13.926-12.462 14.62a19.526 19.526 0 0 0 3.85-2.372c4.229-3.352 6.465-8.142 6.465-13.853 0-7.985-6.496-14.481-14.481-14.481s-14.481 6.497-14.481 14.481c0 5.648 1.843 10.398 5.33 13.737a16.244 16.244 0 0 0 3.667 2.64c-.122.002-.245.003-.368.003-7.925 0-16.41-4.209-16.948-13.392 6.71-1.013 10.319-11.648 10.319-21.692 0-9.402-2.259-13.898-7.286-14.395v-.604a1 1 0 1 0-2 0v3.111a1 1 0 1 0 2 0v-.495c2.854.347 5.286 2.552 5.286 12.384 0 11.09-4.116 19.778-9.371 19.778-5.254 0-9.37-8.688-9.37-19.778 0-9.801 2.417-12.024 5.259-12.381v.492a1 1 0 1 0 2 0v-3.111a1 1 0 1 0-2 0v.606C5.249-160.426 3-155.928 3-146.542c0 10.082 3.637 20.761 10.396 21.703.528 10.558 10.079 15.38 18.975 15.38 1.607 0 3.184-.15 4.702-.442 1.183.25 2.404.379 3.649.379 7.769 0 16.13-5.23 16.13-16.712v-25.595A5.153 5.153 0 0 0 61-156.875zm-23.901 44.93a14.445 14.445 0 0 1-6.645-3.602c-3.083-2.952-4.713-7.202-4.713-12.292 0-6.882 5.6-12.481 12.481-12.481s12.481 5.599 12.481 12.481c0 5.078-1.974 9.327-5.707 12.286-2.205 1.75-4.918 2.978-7.897 3.608zm18.752-41.782c-1.735 0-3.146-1.412-3.146-3.148s1.411-3.148 3.146-3.148c1.736 0 3.149 1.412 3.149 3.148s-1.413 3.148-3.149 3.148zm.001-5.704a2.559 2.559 0 0 0-2.556 2.556c0 1.409 1.146 2.555 2.556 2.555s2.556-1.146 2.556-2.555a2.56 2.56 0 0 0-2.556-2.556zm0 3.111a.556.556 0 1 1 0-1.112.556.556 0 0 1 0 1.112zM-44.13-136.98v-21.442c.002-.158.075-.25.489-.611.648-.565 1.628-1.42 1.642-3.414a1.001 1.001 0 0 0-1-1.006h-18.008a1.002 1.002 0 0 0-1 1.006c.014 1.993.993 2.848 1.642 3.414.414.362.487.453.489.599v21.455l-13.146 18.12c-2.606 3.63-3.412 6.293-2.463 8.143.739 1.441 2.464 2.172 5.127 2.172h36.709c2.663 0 4.388-.731 5.127-2.172.949-1.849.144-4.513-2.466-8.147L-44.13-136.98zm-13.936.912a.998.998 0 0 0 .19-.587v-21.792c-.014-1.079-.685-1.665-1.175-2.093-.331-.289-.607-.53-.776-.914h15.648c-.169.384-.445.625-.776.914-.49.428-1.161 1.014-1.175 2.105v21.78c0 .211.066.417.19.587l2.526 3.482c-4.264-1.003-6.587-.242-8.59.549-2.094-.826-4.377-1.55-8.587-.552l2.525-3.479zm12.982 5.173c-1.474.202-2.635.146-3.64-.048.999-.171 2.159-.198 3.64.048zm14.783 19.264c-.46.897-2.074 1.085-3.348 1.085h-36.709c-1.273 0-2.888-.188-3.348-1.085-.542-1.056.3-3.266 2.306-6.059l8.896-12.263c5.572-1.896 7.822-1.001 10.196-.052 1.542.617 3.115 1.247 5.437 1.247 1.477 0 3.279-.275 5.545-.95l8.716 12.014c2.009 2.798 2.851 5.007 2.309 6.063zm-30.21-10.093a2.411 2.411 0 0 0 1.927-3.851c-.766-1.024-2.343-1.253-3.37-.487a2.388 2.388 0 0 0-.942 1.586 2.383 2.383 0 0 0 .455 1.786 2.422 2.422 0 0 0 1.93.966zm-.245-2.736a.404.404 0 0 1 .57.081.41.41 0 0 1-.081.573c-.284.211-.457.072-.572-.083a.406.406 0 0 1 .083-.571zm2.686 2.33a3.089 3.089 0 0 0-1.217 2.048c-.119.823.09 1.643.588 2.309a3.129 3.129 0 0 0 2.494 1.249c.676 0 1.32-.214 1.862-.62a3.119 3.119 0 0 0 .629-4.358c-.99-1.323-3.032-1.619-4.356-.628zm2.53 3.384a1.103 1.103 0 0 1-.665.222c-.355 0-.681-.163-.893-.447a1.102 1.102 0 0 1-.21-.825 1.1 1.1 0 0 1 .435-.732 1.1 1.1 0 0 1 .666-.222c.354 0 .68.163.892.446a1.115 1.115 0 0 1-.225 1.558zm-7.793-1.891c-.828 0-1.618.263-2.284.76a3.824 3.824 0 0 0-.771 5.344 3.838 3.838 0 0 0 3.059 1.531h.001c.829 0 1.619-.263 2.284-.761.816-.61 1.347-1.502 1.492-2.512s-.11-2.015-.721-2.831a3.84 3.84 0 0 0-3.06-1.531zm1.802 4.077c-.069.48-.321.905-.71 1.196a1.803 1.803 0 0 1-1.087.362c-.58 0-1.111-.266-1.458-.729a1.82 1.82 0 0 1 1.453-2.907c.58 0 1.112.266 1.459.73.291.389.412.868.343 1.348zm.465-20.482a.998.998 0 0 0 .19-.587v-19.199a1 1 0 0 0-1-1h-5.802a1.002 1.002 0 0 0-1 1.006c.013 1.823.906 2.603 1.498 3.12.351.306.397.37.398.45v15.594l-11.676 16.093c-2.208 3.076-2.968 5.385-2.323 7.06.285.742 1.002 1.708 2.799 2.098a.995.995 0 0 0 1.201-.833c.255-1.75 1.246-3.836 2.942-6.199l12.773-17.603zm-17.44 22.313c-.295-.2-.373-.403-.408-.494-.171-.445-.312-1.841 2.079-5.171l11.863-16.351a.998.998 0 0 0 .19-.587v-15.932c-.013-1.01-.632-1.55-1.083-1.944-.234-.204-.436-.38-.579-.62h3.567v17.875L-75.46-120.61c-1.557 2.168-2.561 4.105-3.046 5.881zm52.961-6.84-11.673-16.088v-15.582c.001-.093.048-.157.398-.462.592-.517 1.485-1.297 1.498-3.12a1.001 1.001 0 0 0-1-1.006h-5.802a1 1 0 0 0-1 1v19.199c0 .211.066.417.19.587l12.769 17.598c1.699 2.367 2.69 4.454 2.945 6.204a.998.998 0 0 0 1.201.833c1.797-.39 2.514-1.356 2.799-2.098.646-1.676-.114-3.985-2.325-7.065zm.46 6.346c-.035.091-.113.294-.408.494-.485-1.776-1.49-3.714-3.049-5.885l-12.581-17.339v-17.875h3.567c-.144.24-.345.416-.579.62-.451.394-1.07.934-1.083 1.957v15.919c0 .211.066.417.19.587l11.86 16.347c2.395 3.334 2.254 4.73 2.083 5.175zM-134.217-162.067c-1.206 0-3.317-.714-5.359-1.404-2.326-.786-4.523-1.529-6.096-1.529-1.571 0-3.768.742-6.093 1.528-2.042.69-4.155 1.404-5.361 1.404a1 1 0 0 0-1 1v32.896a1 1 0 0 0 1 1h6.159v4.511a1 1 0 0 0 1 1h1.147v5.392a1 1 0 0 0 1 1h1.147V-108a1 1 0 0 0 2 0v-7.269h1.148a1 1 0 0 0 1-1v-5.392h1.147a1 1 0 0 0 1-1v-4.511h6.159a1 1 0 0 0 1-1v-32.896a.997.997 0 0 0-.998-.999zm-10.306 44.798h-2.296v-4.392h2.296v4.392zm2.147-6.391h-6.591v-3.511h6.591v3.511zm7.159-5.511h-20.909v-19.114c3.092-2.809 6.154-1.161 9.683.755 2.247 1.219 4.662 2.53 7.134 2.53 1.353 0 2.723-.407 4.092-1.422v17.251zm-8.309-19.095c2.802-1.456 5.333-2.358 7.87-.394-2.463 2.374-4.796 1.901-7.87.394zm8.309-2.529c-3.615-2.219-7.214-.351-10.455 1.408-3.24-1.757-6.839-3.626-10.454-1.408v-6.917h20.909v6.917zm0-8.916h-20.909v-.439c1.413-.213 3.166-.806 5-1.426 2.071-.7 4.212-1.423 5.456-1.423 1.242 0 3.382.724 5.452 1.423 1.834.62 3.587 1.212 5.001 1.426v.439zm-9.454-1.497a1 1 0 1 1-2 0 1 1 0 0 1 2 0zm30.797 8.168a1 1 0 0 0-1-1h-15.471a1 1 0 0 0 0 2h15.471a1 1 0 0 0 1-1zm-7 4.735a1 1 0 0 0-1-1h-8.471a1 1 0 0 0 0 2h8.471a1 1 0 0 0 1-1zm7 4.736a1 1 0 0 0-1-1h-15.471a1 1 0 0 0 0 2h15.471a1 1 0 0 0 1-1zm-7 4.735a1 1 0 0 0-1-1h-8.471a1 1 0 0 0 0 2h8.471a1 1 0 0 0 1-1zm7 4.735a1 1 0 0 0-1-1h-15.471a1 1 0 0 0 0 2h15.471a1 1 0 0 0 1-1zM-204.143-115.857h-14.589l.007-.014c11.294-.149 20.439-9.371 20.439-20.7 0-11.084-8.758-20.137-19.714-20.664v-2.194a1 1 0 0 0-1-1h-.143V-164a1 1 0 0 0-1-1h-4.571a1 1 0 0 0-1 1v3.571h-.143a1 1 0 0 0-1 1v13.714a1 1 0 0 0 1 1h2.428v7a1 1 0 0 0 2 0v-7H-219a1 1 0 0 0 1-1v-6.092c7.962.519 14.286 7.144 14.286 15.235 0 7.722-5.953 13.391-14.286 13.815v-4.815h4.714a1 1 0 0 0 0-2h-18.286a1 1 0 0 0 0 2h4.714v5.857c0 .467.327.841.76.952a4.406 4.406 0 0 0-.028 4.906h-14.59a1 1 0 0 0-1 1V-108a1 1 0 0 0 1 1h36.571a1 1 0 0 0 1-1v-6.857a.997.997 0 0 0-.998-1zM-223.714-163h2.571v2.571h-2.571V-163zm3.714 16.286h-4.857v-11.714H-220v11.714zm18.286 10.143c0-9.194-7.221-16.712-16.286-17.235v-1.429c9.854.524 17.714 8.682 17.714 18.664 0 9.995-7.881 18.16-17.753 18.666.011-.127.039-.25.039-.38a4.4 4.4 0 0 0-.738-2.439c9.878-.118 17.024-6.741 17.024-15.847zm-18.286 9v4.857h-4.857v-4.857H-220zm-4.857 9.285a2.431 2.431 0 0 1 2.428-2.429c1.339 0 2.429 1.089 2.429 2.429s-1.089 2.429-2.429 2.429a2.43 2.43 0 0 1-2.428-2.429zm19.714 9.286h-34.571v-4.857h34.571V-109zM125.513-243a2.79 2.79 0 0 0 2.787-2.788c0-1.537-1.25-2.787-2.787-2.787s-2.787 1.25-2.787 2.787a2.79 2.79 0 0 0 2.787 2.788zm0-3.575a.788.788 0 1 1-.002 1.576.788.788 0 0 1 .002-1.576zM126.725-212c2.206 0 4.001-1.794 4.001-4s-1.795-4-4.001-4c-2.205 0-3.999 1.794-3.999 4s1.794 4 3.999 4zm0-6c1.104 0 2.001.897 2.001 2s-.897 2-2.001 2a2.001 2.001 0 0 1 0-4zm-5.999-6c-1.654 0-3 1.346-3 3s1.346 3 3 3 3-1.346 3-3-1.346-3-3-3zm0 4a1.001 1.001 0 0 1 0-2 1.001 1.001 0 0 1 0 2zm.467-15.299a4.58 4.58 0 0 0-4.142 4.554 4.58 4.58 0 0 0 4.574 4.574 4.606 4.606 0 0 0 4.02-2.401 7.21 7.21 0 0 0 2.813.571c4.007 0 7.267-3.259 7.267-7.266s-3.26-7.266-7.267-7.266c-3.994.001-7.246 3.243-7.265 7.234zm7.266-5.233a5.272 5.272 0 0 1 5.267 5.266 5.272 5.272 0 0 1-5.267 5.266 5.238 5.238 0 0 1-2.811-.82 1 1 0 0 0-1.512.629 2.588 2.588 0 0 1-2.511 2.02 2.577 2.577 0 0 1-2.574-2.574 2.578 2.578 0 0 1 2.574-2.575c.161 0 .318.021.472.049a1.003 1.003 0 0 0 1.172-1.143 5.196 5.196 0 0 1-.076-.853 5.273 5.273 0 0 1 5.266-5.265zM118.726-239c1.654 0 3-1.346 3-3s-1.346-3-3-3-3 1.346-3 3 1.345 3 3 3zm0-4a1 1 0 1 1 0 2 1 1 0 0 1 0-2zm14.964 17.1a3.48 3.48 0 0 0-2.653-1.217c-1.932 0-3.503 1.57-3.503 3.5s1.571 3.5 3.503 3.5c.744 0 1.46-.239 2.05-.667a2.86 2.86 0 0 0 1.57.467c1.586 0 2.877-1.29 2.877-2.875a2.88 2.88 0 0 0-3.844-2.708zm1.844 2.707a.877.877 0 0 1-.877.875.867.867 0 0 1-.734-.405 1 1 0 0 0-.82-.459 1.047 1.047 0 0 0-.839.423 1.506 1.506 0 0 1-1.227.641c-.829 0-1.503-.673-1.503-1.5s.674-1.5 1.503-1.5c.616 0 1.162.372 1.392.947a.999.999 0 0 0 1.622.35.87.87 0 0 1 .606-.248.879.879 0 0 1 .877.876zm5.192-2.806c2.206 0 4-1.795 4-4.001 0-2.206-1.794-4-4-4s-4 1.794-4 4a4.005 4.005 0 0 0 4 4.001zm0-6.001c1.103 0 2 .897 2 2 0 1.104-.897 2.001-2 2.001s-2-.897-2-2.001c0-1.103.897-2 2-2zm-11.409 21.193a1.007 1.007 0 0 0-.592-.193h-14v-12.305c0-2.757-2.243-5-5-5h-2.306v-5.087a1 1 0 0 0-1-1h-1.434v-3.869a1 1 0 0 0-1-1h-.218v-4.086h6.216l.326 1.631a1 1 0 0 0 .98.804h2.435a1 1 0 0 0 1-1V-248a1 1 0 0 0-1-1H94.247a1 1 0 0 0-1 1v3.653a1 1 0 0 0 1 1h3.87v4.086h-.218a1 1 0 0 0-1 1v3.869h-1.435a1 1 0 0 0-1 1v5.087H92.16c-2.757 0-5 2.243-5 5V-192a1 1 0 0 0 1 1h25.565a1 1 0 0 0 1-1v-5h11.586l5.707 5.707a.997.997 0 0 0 1.414 0 .999.999 0 0 0 0-1.414l-6-6a.997.997 0 0 0-.707-.293h-21.617l-7.676-6.878-1.414-1.415a.99.99 0 0 1-.293-.707 1 1 0 0 1 1.707-.707l6.598 6.426a.998.998 0 0 0 .695.281h14c1.379 0 2.5-1.122 2.5-2.5s-1.121-2.5-2.5-2.5h-11a1.001 1.001 0 0 1 0-2h20.673l14.735 10.807a1.001 1.001 0 0 0 1.183-1.613l-14.999-11.001zM95.247-247h17.479v4.087h-.615l-.326-1.631a1 1 0 0 0-.98-.804H95.247V-247zm4.87 3.653h1.651v4.086h-1.651v-4.086zm-1.218 6.086h4.087v2.869h-4.087v-2.869zm-2.434 4.869h8.955v4.087h-8.955v-4.087zM104.726-208c0 1.654 1.346 3 3 3h11a.5.5 0 0 1 0 1H105.13l-4.869-4.707-1.414-1.414a3.003 3.003 0 0 0-4.242 0 2.983 2.983 0 0 0-.879 2.122c0 .801.313 1.555.879 2.121l1.453 1.452 8 7.171a1 1 0 0 0 .668.255h8v4H89.16v-30.305c0-1.654 1.346-3 3-3h17.565c1.654 0 3 1.346 3 3V-211h-5a3.003 3.003 0 0 0-2.999 3zM60.891-192.454c-3.455-6.781-7.53-30.992-7.728-32.173-.068-4.977-2.846-12.868-7.703-18.125-3.776-4.087-8.432-6.248-13.463-6.248-4.603 0-9.072 2.205-12.926 6.375-4.901 5.305-7.839 12.646-8.197 17.4-.008.028-.025.051-.03.08-.041.257-4.211 25.776-7.734 32.69A1 1 0 0 0 4-191h56a1 1 0 0 0 .891-1.454zM20.54-241.267c2.417-2.615 6.365-5.733 11.457-5.733 4.522 0 8.558 1.886 11.994 5.605 5.14 5.563 7.455 13.863 7.149 17.715-.348 4.396-1.448 10.443-3.508 15.963v-10.067c0-.022-.01-.042-.011-.065.166-.933.301-2.62.543-5.672a.914.914 0 0 0 .002-.117s-.043-1.14-.04-1.52c.034-4.398-2.748-11.986-7.302-16.576-2.645-2.665-5.645-4.074-8.677-4.074-3.079 0-6.147 1.446-8.875 4.181-4.612 4.626-7.454 12.148-7.441 16.463.001.402.056 1.608.058 1.642l.373 4.841c.026.335.05.631.087.884-.001.013.013.036.019.053l-.001.004v10.037c-2.065-5.529-3.166-11.585-3.514-15.978-.284-3.577 2.23-11.68 7.687-17.586zm-2.296 22.28-.163-2.125-.195-2.534s-.053-1.141-.054-1.522c0-.123.01-.257.015-.385a60.62 60.62 0 0 0 1.528-1.739c2.812-3.273 8.044-9.365 12.358-9.365 5.202 0 10.798 6.735 13.487 9.972.344.415.633.757.892 1.057.006.153.016.311.015.456-.003.349.03 1.304.04 1.551a319.447 319.447 0 0 1-.403 4.604c-4.014-.924-8.84-1.433-13.754-1.433-4.976-.002-9.804.519-13.766 1.463zm.269-10.369c1.035-3.627 3.206-7.877 6.177-10.858 4.71-4.723 10.085-4.779 14.716-.111 2.813 2.835 4.968 7.088 6.017 10.769-3.271-3.831-8.343-9.102-13.688-9.102-4.896.001-9.945 5.51-13.222 9.302zm-6.917 11.522c.736 4.237 2.14 9.935 4.771 15.152V-193H5.545c2.299-5.69 4.663-17.312 6.051-24.834zM18.367-193v-23.966c3.869-.96 8.677-1.486 13.643-1.486 4.896 0 9.697.513 13.623 1.449v13.984c-.009.064-.004.126 0 .19V-193H18.367zm29.266 0v-9.696c2.595-5.146 3.994-10.759 4.737-14.978 1.382 7.388 3.766 18.966 6.083 24.674h-10.82zM-26.398-206.916c-.353-.394-1.174-.944-2.692-.238-1.18.547-2.188.606-3.077.179-1.073-.516-1.808-1.64-2.27-2.606a4.1 4.1 0 0 0 .834.097c1.526 0 3.499-.899 4.223-5.181.477-2.826.237-4.758-.732-5.905-.5-.592-1.181-.926-1.971-1.012 1.148-4.308.728-12.18-3.203-18.464-2.555-4.085-7.55-8.954-16.885-8.954-9.32 0-14.325 4.905-16.882 9.021-4.078 6.563-4.339 14.787-2.998 18.921a4.495 4.495 0 0 0-1.868 1.494c-1.004 1.393-1.23 3.335-.673 5.771.843 3.686 3.026 4.236 4.254 4.236.277 0 .543-.032.801-.076-.484 1.016-1.241 2.15-2.289 2.656-.893.431-1.898.372-3.082-.177-1.523-.706-2.341-.155-2.692.238-.915 1.021-.574 3.097.911 5.551 2.636 4.356 8.031 8.706 15.421 8.705 1.431 0 2.941-.174 4.516-.532a6.294 6.294 0 0 0 4.762 2.191 6.273 6.273 0 0 0 4.78-2.184c1.563.353 3.061.524 4.481.524 7.389 0 12.785-4.35 15.421-8.705 1.484-2.453 1.825-4.528.91-5.55zm-25.774 10.113c-7.178 0-11.608-7.771-13.515-12.082 3.426-2.228 8.284-3.507 13.515-3.507 5.255 0 10.13 1.289 13.559 3.533-1.827 4.446-6.051 12.056-13.559 12.056zm-15.183-42.121c2.29-3.684 6.782-8.076 15.234-8.076 8.369 0 12.852 4.358 15.139 8.015 3.807 6.085 4.111 14.176 2.69 17.725-.892.256-1.62.737-2.109 1.438-.407.583-.604 1.224-.692 1.801-1.875-1.34-2.581-3.976-2.589-4.006a1 1 0 0 0-.969-.753c-4.65 0-7.607-3.99-7.635-4.028a.998.998 0 0 0-1.518-.122c-4.046 4.046-8.667 4.895-11.831 4.896-1.439 0-2.36-.188-2.367-.19a1 1 0 0 0-1.186.767c-.006.026-.484 2.155-2.061 3.368-.094-.761-.34-1.625-.918-2.292-.479-.553-1.127-.88-1.884-.988-1.375-3.573-1.054-11.521 2.696-17.555zm-5.289 24.685c-.413-1.809-.3-3.238.33-4.133.644-.916 1.646-1.046 1.625-1.046l.106-.002c.538 0 .772.197.901.346.553.633.505 2.024.445 2.459a1.002 1.002 0 0 0 1.274 1.1c2.717-.804 3.963-3.269 4.455-4.619.472.052 1.108.099 1.87.099 2.741 0 7.874-.637 12.457-4.735 1.226 1.318 3.938 3.689 7.79 3.964.516 1.417 1.956 4.466 5.026 5.329.329.091.688.006.944-.227.255-.233.371-.583.309-.923-.063-.343-.124-1.382.354-2.058.282-.399.725-.643 1.354-.744.077-.012.152-.034.224-.063.004-.001.329-.125.713-.125.48 0 .7.194.824.34.314.372.77 1.423.287 4.281-.271 1.603-.881 3.515-2.25 3.514-.92 0-1.96-.727-2.28-1.005a1.001 1.001 0 0 0-1.628.498 22.19 22.19 0 0 1-.381 1.217c-3.726-2.303-8.834-3.617-14.279-3.617-5.448 0-10.56 1.318-14.284 3.625a21.689 21.689 0 0 1-.323-.918.998.998 0 0 0-.956-.703c-.195 0-.389.057-.555.167-.011.006-1.014.664-2.049.664-.417-.003-1.689-.003-2.303-2.685zm-.995 13.7c-1.97-2.345-2.529-4.299-2.478-4.935.083.02.202.058.365.134 1.737.805 3.349.861 4.792.164 1.553-.749 2.56-2.234 3.172-3.49 1.406 3.375 4.493 9.358 9.567 12.231.066.495.194.971.371 1.423-8.612 1.658-13.878-3.252-15.789-5.527zM-51.992-193c-1.671 0-3.12-.976-3.825-2.376 1.134.363 2.347.573 3.646.573a12.74 12.74 0 0 0 4.065-.658A4.268 4.268 0 0 1-51.992-193zm21.631-7.539c-1.91 2.273-7.166 7.177-15.77 5.532.184-.476.312-.979.373-1.506 5.196-2.965 8.098-9.074 9.378-12.509.589 1.317 1.636 3.025 3.339 3.846 1.443.697 3.055.642 4.792-.164.163-.076.282-.114.365-.134.052.636-.508 2.59-2.477 4.935zM-115.905-219.785a3.69 3.69 0 0 0 1.133-1.489c.571-1.371.382-3.171-.462-4.763.958-1.288 1.123-3.203.934-4.615-.198-1.488-.784-2.701-1.618-3.412.303-1.626-.08-3.442-1.065-4.905-.771-1.145-1.829-1.923-2.981-2.217-.673-2.438-3.284-4.454-6.068-4.593-1.666-2.221-4.673-3.221-7.042-3.221-1.071 0-2.071.193-2.923.561-.853-.368-1.853-.561-2.924-.561-2.37 0-5.377 1-7.043 3.221-2.789.139-5.399 2.154-6.069 4.593-1.152.293-2.21 1.072-2.981 2.216-.986 1.462-1.369 3.279-1.065 4.906-.833.712-1.419 1.924-1.618 3.412-.189 1.413-.025 3.328.932 4.616-.844 1.592-1.032 3.393-.46 4.764a3.722 3.722 0 0 0 1.137 1.495c-1.081 1.097-1.713 2.907-1.584 4.952.092 1.474.578 2.849 1.37 3.872.867 1.12 2.055 1.722 3.237 1.644a3.284 3.284 0 0 0 1.211-.32c.742 3.286 3.082 10.316 9.791 13.154.295 3.068 2.904 5.476 6.07 5.476 3.134 0 5.722-2.362 6.058-5.388 6.416-2.788 8.928-9.978 9.76-13.264.398.197.822.314 1.261.342 1.19.079 2.368-.523 3.235-1.644.791-1.022 1.278-2.397 1.371-3.872.124-2.05-.512-3.863-1.597-4.96zm-39.812-10.602c.153-1.145.627-2.074 1.179-2.313a1 1 0 0 0 .55-1.239c-.408-1.205-.161-2.74.63-3.913.593-.88 1.407-1.413 2.232-1.46a1 1 0 0 0 .937-.902c.182-1.87 2.339-3.572 4.527-3.572l.178.004a1.02 1.02 0 0 0 .897-.474c.997-1.615 3.326-2.744 5.663-2.744.945 0 1.79.19 2.443.549.3.165.664.165.963 0 .653-.359 1.497-.549 2.441-.549 2.337 0 4.666 1.128 5.663 2.744.19.309.525.479.897.474l.178-.004c2.185 0 4.343 1.703 4.528 3.574a1 1 0 0 0 .937.9c.824.048 1.637.581 2.23 1.461.791 1.173 1.038 2.708.63 3.912a1 1 0 0 0 .55 1.239c.552.239 1.026 1.168 1.179 2.313.194 1.457-.152 2.902-.823 3.437a.999.999 0 0 0-.201 1.347c.808 1.178 1.084 2.609.688 3.562-.256.614-.792 1-1.521 1.136-.189.021-1.886.235-3.026 1.357a1 1 0 0 0-.298.674l-.047 1.216c-1.792-1.285-2.467-3.809-2.475-3.837a1 1 0 0 0-.969-.753c-4.459 0-7.294-3.824-7.32-3.861a.996.996 0 0 0-.812-.415 1 1 0 0 0-.707.292c-3.89 3.888-8.331 4.705-11.371 4.705-1.377 0-2.259-.18-2.265-.181a1 1 0 0 0-1.19.79c-.004.023-.357 1.789-1.608 2.959l.048-.453c.076-1.125-1.129-1.958-3.611-2.482-.8-.146-1.336-.532-1.592-1.146-.396-.952-.121-2.383.686-3.562a1 1 0 0 0-.201-1.346c-.666-.537-1.012-1.983-.817-3.439zM-135.996-193a4.09 4.09 0 0 1-3.86-2.743c1.273.315 2.671.495 4.216.495a14.97 14.97 0 0 0 3.471-.398 4.089 4.089 0 0 1-3.827 2.646zm.356-4.248c-8.529 0-12.108-6.013-13.573-10.254 3.104-3.574 7.987-5.707 13.169-5.707 5.176 0 10.047 2.127 13.13 5.667-1.568 4.249-5.133 10.294-12.726 10.294zm18.376-14.93c-.267.345-.825.931-1.526.872-.56-.036-.972-.437-1.22-.767a1.002 1.002 0 0 0-1.79.458c-.004.032-.117.765-.416 1.881-3.48-3.45-8.522-5.474-13.828-5.474-5.294 0-10.33 2.018-13.813 5.459a16.971 16.971 0 0 1-.325-1.827 1.002 1.002 0 0 0-1.792-.501c-.251.332-.667.735-1.222.771-.712.041-1.262-.527-1.528-.872-.541-.699-.889-1.709-.955-2.773-.122-1.935.742-3.687 1.871-3.892.654.167 1.3.398 1.603.578l-.216 2.018a1 1 0 0 0 1.278 1.066c2.61-.772 3.771-3.116 4.229-4.437a16.89 16.89 0 0 0 1.751.089c2.64 0 7.58-.612 11.997-4.546 1.193 1.275 3.793 3.527 7.476 3.799.505 1.379 1.897 4.299 4.849 5.134a.997.997 0 0 0 1.271-.924l.088-2.285c.393-.266.878-.421 1.248-.505 1.155.158 2.049 1.939 1.926 3.905-.066 1.063-.415 2.074-.956 2.773zM-192-225.426a1 1 0 0 0-1 1V-221h-6.099a20.79 20.79 0 0 0-1.206-6.076l1.937-.802.696 1.681a1 1 0 1 0 1.847-.766l-2.158-5.211a1 1 0 1 0-1.848.766l.696 1.682-1.939.803a21.002 21.002 0 0 0-3.447-5.144l4.317-4.318 2.423 2.423a.997.997 0 0 0 1.414 0 .999.999 0 0 0 0-1.414l-6.26-6.26a.999.999 0 1 0-1.414 1.414l2.423 2.423-4.317 4.318a20.974 20.974 0 0 0-5.144-3.447l.803-1.939 1.681.696a.995.995 0 0 0 1.306-.541 1.001 1.001 0 0 0-.541-1.307l-5.211-2.159a1 1 0 0 0-.766 1.848l1.683.697-.803 1.937a20.83 20.83 0 0 0-6.077-1.206V-247h3.427a1 1 0 0 0 0-2h-8.853a1 1 0 0 0 0 2h3.43v6.099a20.822 20.822 0 0 0-6.076 1.205l-.802-1.936 1.682-.697a1 1 0 0 0-.766-1.848l-2.605 1.079-2.604 1.079a1 1 0 0 0 .765 1.848l1.681-.696.802 1.938a21.017 21.017 0 0 0-5.145 3.447l-4.317-4.317 2.423-2.423a.999.999 0 1 0-1.414-1.414l-6.26 6.26a.999.999 0 1 0 1.414 1.414l2.422-2.422 4.317 4.317a20.989 20.989 0 0 0-3.447 5.145l-1.937-.802.696-1.682a1.001 1.001 0 0 0-1.848-.766l-2.158 5.21a1.001 1.001 0 0 0 .923 1.384 1 1 0 0 0 .924-.618l.696-1.681 1.935.802a20.83 20.83 0 0 0-1.206 6.077H-247v-3.427a1 1 0 0 0-2 0v8.853a1 1 0 0 0 2 0v-3.425h6.098a20.783 20.783 0 0 0 1.205 6.076l-1.934.801-.697-1.682a1 1 0 0 0-1.848.766l1.079 2.605 1.079 2.604a1.001 1.001 0 0 0 1.306.541 1 1 0 0 0 .541-1.307l-.696-1.681 1.936-.801a21.023 21.023 0 0 0 3.447 5.146l-4.315 4.315-2.423-2.423a.999.999 0 1 0-1.414 1.414l6.26 6.26a.997.997 0 0 0 1.414 0 .999.999 0 0 0 0-1.414l-2.422-2.422 4.315-4.315a20.998 20.998 0 0 0 5.146 3.448l-.801 1.934-1.682-.696a1 1 0 0 0-.766 1.848l5.21 2.158a.995.995 0 0 0 1.306-.541 1.001 1.001 0 0 0-.541-1.307l-1.681-.696.801-1.933a20.823 20.823 0 0 0 6.076 1.206V-193h-3.426a1 1 0 0 0 0 2h8.853a1 1 0 0 0 0-2H-219v-6.095a20.79 20.79 0 0 0 6.077-1.206l.801 1.933-1.681.696a1 1 0 0 0 .765 1.848l5.21-2.158a1 1 0 0 0-.766-1.848l-1.682.696-.801-1.935a20.993 20.993 0 0 0 5.145-3.448l4.316 4.315-2.423 2.423a.999.999 0 1 0 1.414 1.414l6.26-6.26a.999.999 0 1 0-1.414-1.414l-2.423 2.423-4.316-4.316a20.995 20.995 0 0 0 3.447-5.146l1.937.803-.696 1.681a1.001 1.001 0 0 0 .923 1.384 1 1 0 0 0 .924-.618l2.159-5.21a1.001 1.001 0 0 0-1.848-.766l-.697 1.682-1.936-.802A20.822 20.822 0 0 0-199.1-219h6.099v3.426a1 1 0 0 0 2 0v-8.853a.998.998 0 0 0-.999-.999zm-28 24.382c-10.449 0-18.95-8.5-18.952-18.949l.001-.006-.001-.006c.003-10.448 8.504-18.947 18.952-18.947 10.451 0 18.953 8.502 18.953 18.954s-8.502 18.954-18.953 18.954zm-2.347-23.474a5.673 5.673 0 0 0-5.667-5.667 5.673 5.673 0 0 0-5.667 5.667 5.673 5.673 0 0 0 5.667 5.667 5.673 5.673 0 0 0 5.667-5.667zm-5.666 3.667a3.671 3.671 0 0 1-3.667-3.667 3.671 3.671 0 0 1 3.667-3.667 3.672 3.672 0 0 1 3.667 3.667 3.672 3.672 0 0 1-3.667 3.667zM-220-215.4c-2.61 0-4.733 2.124-4.733 4.733s2.124 4.733 4.733 4.733 4.733-2.124 4.733-4.733-2.123-4.733-4.733-4.733zm0 7.467c-1.507 0-2.733-1.226-2.733-2.733s1.226-2.733 2.733-2.733 2.733 1.226 2.733 2.733-1.226 2.733-2.733 2.733zm7.965-21.876a3.805 3.805 0 0 0-3.8 3.8c0 2.095 1.705 3.8 3.8 3.8 2.096 0 3.8-1.705 3.8-3.8a3.803 3.803 0 0 0-3.8-3.8zm0 5.601c-.992 0-1.8-.808-1.8-1.8 0-.993.808-1.8 1.8-1.8.993 0 1.8.808 1.8 1.8.001.992-.807 1.8-1.8 1.8z" fill="#ffffff" class="fill-000000"></path></svg>