<svg viewBox="0 0 6.35 6.35" xmlns="http://www.w3.org/2000/svg"><path d="M1.586.794v.26l.529.002V.794c-.002-.355-.53-.351-.53 0Zm2.647 0v.264H2.115v.795c-.018.36-.543.342-.53 0v-.795H.794a.265.265 0 0 0-.264.265v1.059h5.292V1.323a.265.265 0 0 0-.266-.265h-.793V.794c-.006-.356-.534-.35-.53 0zm0 .265h.53v.794c-.006.354-.535.348-.53 0zM.529 2.91v2.646c0 .146.117.265.264.266h4.762a.265.265 0 0 0 .266-.266V2.909Zm1.057.265h.529c.352-.002.356.527 0 .53h-.53c-.348.004-.354-.525 0-.53zm1.324 0h.53c.352.001.351.53 0 .53h-.53c-.355-.003-.352-.532 0-.53zm1.323 0h.53c.348-.006.356.522 0 .53h-.53c-.354-.003-.351-.532 0-.53zm-2.647 1.06h.529c.351-.007.357.522 0 .528h-.53c-.35 0-.35-.53 0-.529zm1.324 0h.53c.355.004.349.533 0 .528h-.53c-.347.01-.36-.518 0-.529zm1.323 0h.53c.355.004.349.533 0 .528h-.53c-.356-.006-.35-.535 0-.529z" style="line-height:normal;font-variant-ligatures:normal;font-variant-position:normal;font-variant-caps:normal;font-variant-numeric:normal;font-variant-alternates:normal;font-variant-east-asian:normal;font-feature-settings:normal;font-variation-settings:normal;text-indent:0;text-align:start;text-decoration-line:none;text-decoration-style:solid;text-decoration-color:#000;text-transform:none;text-orientation:mixed;white-space:normal;shape-padding:0;shape-margin:0;inline-size:0;isolation:auto;mix-blend-mode:normal;solid-color:#000;solid-opacity:1" color="#000000" font-style="normal" font-variant="normal" font-weight="400" font-stretch="normal" font-size="medium" font-family="sans-serif" text-decoration="none" letter-spacing="normal" word-spacing="normal" writing-mode="lr-tb" direction="ltr" dominant-baseline="auto" baseline-shift="baseline" text-anchor="start" clip-rule="nonzero" display="inline" overflow="visible" visibility="visible" opacity="1" color-interpolation="sRGB" color-interpolation-filters="linearRGB" vector-effect="none" fill="#ffffff" fill-opacity="1" fill-rule="nonzero" stroke="none" stroke-width=".529167" stroke-linecap="round" stroke-linejoin="round" stroke-miterlimit="4" stroke-dasharray="none" stroke-dashoffset="0" stroke-opacity="1" color-rendering="auto" image-rendering="auto" shape-rendering="auto" text-rendering="auto" enable-background="accumulate" stop-color="#ffffff" stop-opacity="1" class="fill-000000 stop-color-000000"></path></svg>